<svg width="197" height="99" viewBox="0 0 197 99" fill="none" xmlns="http://www.w3.org/2000/svg">
<path d="M3.77599 59.1651L19.7219 32.5608L48.6221 42.8963L44.3574 73.6379C43.9869 76.3085 41.2553 77.9636 38.7165 77.0557L5.9902 65.3518C3.46634 64.4492 2.398 61.4642 3.77599 59.1651ZM31.8884 43.5846C33.7611 44.2543 35.5644 44.6446 36.9782 44.7201C37.6801 44.7575 38.3304 44.7201 38.8588 44.5731C39.3635 44.4328 39.9373 44.1373 40.1577 43.5211C40.3781 42.9049 40.1218 42.3126 39.8205 41.884C39.5051 41.4353 39.026 40.994 38.4596 40.5778C37.3185 39.7396 35.6767 38.8978 33.8041 38.2281C31.9314 37.5584 30.1281 37.1681 28.7143 37.0926C28.0124 37.0552 27.3621 37.0926 26.8337 37.2396C26.3289 37.3799 25.7552 37.6754 25.5348 38.2916C25.3144 38.9078 25.5707 39.5001 25.872 39.9287C26.1874 40.3774 26.6665 40.8187 27.2329 41.2349C28.374 42.0731 30.0158 42.9149 31.8884 43.5846Z" fill="white" stroke="#1CBABA" stroke-width="1.5"/>
<g clip-path="url(#clip0_33_74)">
<path fill-rule="evenodd" clip-rule="evenodd" d="M40.5159 58.0435C41.5823 55.0615 39.9129 51.7379 36.7871 50.62C33.6614 49.5022 30.2629 51.0133 29.1965 53.9954C28.13 56.9774 29.7994 60.301 32.9252 61.4188C36.0509 62.5367 39.4494 61.0255 40.5159 58.0435ZM36.849 56.7321C37.2245 55.6821 36.6367 54.5118 35.5361 54.1182C34.4355 53.7246 33.2388 54.2567 32.8633 55.3067C32.4878 56.3567 33.0756 57.527 34.1762 57.9206C35.2769 58.3142 36.4735 57.7821 36.849 56.7321Z" fill="#D1BFC8"/>
<path d="M29.3634 55.5417L29.3645 55.5358L29.3648 55.5298C29.3994 54.7502 29.7216 53.2303 30.5577 52.089C30.9748 51.5197 31.5166 51.0487 32.2103 50.8071C32.9026 50.566 33.7557 50.55 34.8032 50.9065C34.8929 50.937 35.032 50.9707 35.2084 51.0133C35.7758 51.1506 36.7292 51.3812 37.6662 51.9016C38.8826 52.5772 40.0436 53.7318 40.1892 55.7835C40.3808 58.4835 37.7388 60.5276 34.702 60.6392C33.2149 60.5775 31.7733 59.8651 30.7558 58.8821C29.7358 57.8967 29.1567 56.6549 29.3634 55.5417ZM32.9174 56.0148C32.904 57.0526 33.7145 57.9372 34.7398 57.9789C35.7652 58.0207 36.5975 57.203 36.6109 56.1652C36.6175 55.6512 36.4669 55.189 36.1571 54.8478C35.8462 54.5056 35.3838 54.2951 34.7875 54.2708C34.1911 54.2465 33.7238 54.4191 33.4045 54.7358C33.0862 55.0513 32.924 55.5009 32.9174 56.0148Z" fill="white" stroke="#D1BFC8" stroke-width="0.5"/>
<path d="M33.8843 51.4989C33.8731 51.542 33.8276 51.5673 33.7825 51.5552L33.7792 51.5543C33.7341 51.5422 33.7065 51.4975 33.7177 51.4543C33.7288 51.4111 33.7744 51.3859 33.8195 51.398L33.8227 51.3989C33.8678 51.4109 33.8954 51.4557 33.8843 51.4989Z" fill="#D1BFC8"/>
<path d="M32.8877 54.1468C32.9838 54.1725 33.081 54.1188 33.1047 54.0268L33.1067 54.0188C33.1304 53.9268 33.0717 53.8314 32.9756 53.8057C32.8794 53.7799 32.7823 53.8337 32.7586 53.9257L32.7565 53.9337C32.7328 54.0257 32.7916 54.1211 32.8877 54.1468Z" fill="#D1BFC8"/>
<path d="M36.9214 59.6312C37.0175 59.6569 37.1147 59.6032 37.1384 59.5112L37.1404 59.5032C37.1641 59.4112 37.1054 59.3158 37.0092 59.29C36.9131 59.2643 36.816 59.318 36.7923 59.41L36.7902 59.418C36.7665 59.5101 36.8253 59.6055 36.9214 59.6312Z" fill="#D1BFC8"/>
<path d="M30.5275 54.3257C30.6236 54.3514 30.7208 54.2976 30.7445 54.2057L30.7465 54.1977C30.7702 54.1057 30.7115 54.0102 30.6153 53.9845C30.5192 53.9588 30.4221 54.0125 30.3984 54.1045L30.3963 54.1125C30.3726 54.2045 30.4313 54.2999 30.5275 54.3257Z" fill="#D1BFC8"/>
<path d="M33.1372 52.4063C33.1135 52.4983 33.0163 52.5521 32.9202 52.5263C32.824 52.5006 32.7653 52.4052 32.789 52.3132L32.7911 52.3052C32.8148 52.2132 32.9119 52.1595 33.008 52.1852C33.1042 52.2109 33.1629 52.3063 33.1392 52.3983L33.1372 52.4063Z" fill="#D1BFC8"/>
<path d="M37.3786 57.8949C37.4747 57.9206 37.5718 57.8669 37.5955 57.7749L37.5976 57.7669C37.6213 57.6749 37.5625 57.5794 37.4664 57.5537C37.3703 57.528 37.2731 57.5817 37.2494 57.6737L37.2474 57.6817C37.2237 57.7737 37.2824 57.8692 37.3786 57.8949Z" fill="#D1BFC8"/>
<path d="M30.238 55.6201C30.2143 55.7121 30.1171 55.7658 30.021 55.7401C29.9249 55.7144 29.8661 55.6189 29.8898 55.5269L29.8919 55.5189C29.9156 55.4269 30.0127 55.3732 30.1089 55.3989C30.205 55.4246 30.2637 55.5201 30.24 55.6121L30.238 55.6201Z" fill="#D1BFC8"/>
<path d="M31.7332 53.1733C31.8293 53.199 31.9264 53.1453 31.9501 53.0533L31.9522 53.0453C31.9759 52.9533 31.9172 52.8579 31.821 52.8321C31.7249 52.8064 31.6277 52.8602 31.604 52.9522L31.602 52.9602C31.5783 53.0522 31.637 53.1476 31.7332 53.1733Z" fill="#D1BFC8"/>
<path d="M36.5046 58.6068C36.4809 58.6988 36.3837 58.7525 36.2876 58.7268C36.1915 58.7011 36.1327 58.6056 36.1564 58.5136L36.1585 58.5056C36.1822 58.4136 36.2793 58.3599 36.3755 58.3856C36.4716 58.4113 36.5303 58.5068 36.5066 58.5988L36.5046 58.6068Z" fill="#D1BFC8"/>
<path d="M31.1754 56.7136C31.2716 56.7393 31.3687 56.6856 31.3924 56.5936L31.3945 56.5856C31.4181 56.4936 31.3594 56.3982 31.2633 56.3724C31.1671 56.3467 31.07 56.4004 31.0463 56.4924L31.0442 56.5004C31.0206 56.5924 31.0793 56.6879 31.1754 56.7136Z" fill="#D1BFC8"/>
<path d="M32.5401 51.3764C32.529 51.4196 32.4834 51.4448 32.4383 51.4328L32.4351 51.4319C32.39 51.4198 32.3624 51.375 32.3736 51.3319C32.3847 51.2887 32.4302 51.2635 32.4754 51.2756L32.4786 51.2764C32.5237 51.2885 32.5513 51.3333 32.5401 51.3764Z" fill="#D1BFC8"/>
<path d="M35.0707 53.4948C35.1158 53.5068 35.1613 53.4816 35.1725 53.4385C35.1836 53.3953 35.156 53.3505 35.1109 53.3384L35.1077 53.3376C35.0626 53.3255 35.017 53.3507 35.0059 53.3939C34.9948 53.4371 35.0223 53.4818 35.0674 53.4939L35.0707 53.4948Z" fill="#D1BFC8"/>
<path d="M33.2732 58.7431C33.2621 58.7863 33.2165 58.8115 33.1714 58.7994L33.1681 58.7986C33.123 58.7865 33.0955 58.7417 33.1066 58.6986C33.1177 58.6554 33.1633 58.6302 33.2084 58.6423L33.2116 58.6431C33.2567 58.6552 33.2843 58.7 33.2732 58.7431Z" fill="#D1BFC8"/>
<path d="M31.7949 58.1196C31.84 58.1317 31.8856 58.1065 31.8967 58.0633C31.9078 58.0202 31.8803 57.9754 31.8352 57.9633L31.8319 57.9625C31.7868 57.9504 31.7412 57.9756 31.7301 58.0188C31.719 58.0619 31.7466 58.1067 31.7917 58.1188L31.7949 58.1196Z" fill="#D1BFC8"/>
<path d="M31.2458 52.2228C31.2347 52.2659 31.1891 52.2911 31.144 52.2791L31.1408 52.2782C31.0957 52.2661 31.0681 52.2214 31.0792 52.1782C31.0904 52.135 31.1359 52.1098 31.181 52.1219L31.1843 52.1227C31.2294 52.1348 31.2569 52.1796 31.2458 52.2228Z" fill="#D1BFC8"/>
<path d="M34.2341 52.4078C34.2792 52.4199 34.3248 52.3947 34.3359 52.3515C34.347 52.3084 34.3195 52.2636 34.2744 52.2515L34.2711 52.2507C34.226 52.2386 34.1804 52.2638 34.1693 52.307C34.1582 52.3501 34.1858 52.3949 34.2309 52.407L34.2341 52.4078Z" fill="#D1BFC8"/>
<path d="M38.6 56.0771C38.5763 56.1691 38.4792 56.2228 38.3831 56.1971C38.2869 56.1714 38.2282 56.076 38.2519 55.984L38.2539 55.976C38.2776 55.884 38.3748 55.8302 38.4709 55.856C38.5671 55.8817 38.6258 55.9771 38.6021 56.0691L38.6 56.0771Z" fill="#D1BFC8"/>
<path d="M35.0533 58.6603C35.0422 58.7034 34.9966 58.7286 34.9515 58.7166L34.9483 58.7157C34.9032 58.7036 34.8756 58.6589 34.8867 58.6157C34.8978 58.5725 34.9434 58.5473 34.9885 58.5594L34.9918 58.5602C35.0369 58.5723 35.0644 58.6171 35.0533 58.6603Z" fill="#D1BFC8"/>
<path d="M32.1254 57.4239C32.1142 57.4671 32.0687 57.4923 32.0235 57.4802L32.0203 57.4794C31.9752 57.4673 31.9476 57.4225 31.9588 57.3794C31.9699 57.3362 32.0154 57.311 32.0606 57.3231L32.0638 57.3239C32.1089 57.336 32.1365 57.3808 32.1254 57.4239Z" fill="#D1BFC8"/>
<path d="M32.0318 56.3485C32.077 56.3606 32.1225 56.3354 32.1336 56.2922C32.1448 56.2491 32.1172 56.2043 32.0721 56.1922L32.0688 56.1914C32.0237 56.1793 31.9782 56.2045 31.9671 56.2477C31.9559 56.2908 31.9835 56.3356 32.0286 56.3477L32.0318 56.3485Z" fill="#D1BFC8"/>
<path d="M30.8908 57.5499C30.8797 57.5931 30.8342 57.6183 30.789 57.6062L30.7858 57.6054C30.7407 57.5933 30.7131 57.5485 30.7243 57.5053C30.7354 57.4622 30.7809 57.437 30.826 57.449L30.8293 57.4499C30.8744 57.462 30.902 57.5067 30.8908 57.5499Z" fill="#D1BFC8"/>
<path d="M37.2842 53.9065C37.3242 53.877 37.3305 53.8213 37.2983 53.7822C37.266 53.743 37.2075 53.7352 37.1675 53.7648L36.8797 53.9771C36.8397 54.0066 36.8334 54.0623 36.8656 54.1014C36.8978 54.1406 36.9564 54.1484 36.9964 54.1188L37.2842 53.9065Z" fill="#D1BFC8"/>
<path d="M31.6658 53.8038C31.717 53.8026 31.761 53.8416 31.7642 53.891L31.7868 54.2439C31.7899 54.2933 31.751 54.3343 31.6999 54.3355C31.6488 54.3367 31.6048 54.2977 31.6016 54.2483L31.579 53.8954C31.5758 53.846 31.6147 53.8051 31.6658 53.8038Z" fill="#D1BFC8"/>
<path d="M33.7636 53.2008C33.802 53.1693 33.8053 53.1132 33.7711 53.0756C33.7369 53.038 33.6781 53.0331 33.6397 53.0646L33.3644 53.291C33.326 53.3225 33.3227 53.3785 33.3569 53.4161C33.3911 53.4537 33.4499 53.4586 33.4883 53.4271L33.7636 53.2008Z" fill="#D1BFC8"/>
<path d="M31.2534 52.928C31.2866 52.9665 31.2816 53.0223 31.2424 53.0528L30.9603 53.2717C30.921 53.3021 30.8623 53.2956 30.8291 53.2572C30.796 53.2187 30.8009 53.1629 30.8402 53.1324L31.1223 52.9136C31.1616 52.8831 31.2203 52.8896 31.2534 52.928Z" fill="#D1BFC8"/>
<path d="M35.2386 59.9207C35.2713 59.8292 35.2201 59.7272 35.1241 59.6929L35.1201 59.6914C35.0241 59.6572 34.9198 59.7036 34.887 59.7951C34.8542 59.8867 34.9054 59.9887 35.0014 60.023L35.0054 60.0244C35.1014 60.0587 35.2058 60.0123 35.2386 59.9207Z" fill="#D1BFC8"/>
<path d="M38.4763 57.3176C38.5457 57.248 38.6631 57.2475 38.7379 57.3159C38.8127 57.3842 38.8176 57.4965 38.7482 57.566C38.6788 57.6356 38.5615 57.6361 38.4866 57.5678C38.4118 57.4994 38.4069 57.3872 38.4763 57.3176Z" fill="#D1BFC8"/>
<path d="M31.7995 55.1407C31.893 55.1179 31.9466 55.026 31.9192 54.9354L31.9144 54.9197C31.887 54.8292 31.789 54.7742 31.6954 54.797C31.6019 54.8199 31.5483 54.9118 31.5758 55.0024L31.5805 55.018C31.6079 55.1086 31.706 55.1636 31.7995 55.1407Z" fill="#D1BFC8"/>
<path d="M36.149 52.9542C36.245 52.9885 36.2962 53.0905 36.2635 53.1821C36.2307 53.2736 36.1263 53.32 36.0303 53.2857L36.0263 53.2843C35.9303 53.25 35.8791 53.148 35.9119 53.0565C35.9447 52.9649 36.049 52.9185 36.145 52.9528L36.149 52.9542Z" fill="#D1BFC8"/>
<path d="M32.2205 51.7376C32.2532 51.6461 32.202 51.544 32.106 51.5098L32.1021 51.5083C32.0061 51.474 31.9017 51.5205 31.8689 51.612C31.8361 51.7036 31.8874 51.8056 31.9833 51.8399L31.9873 51.8413C32.0833 51.8756 32.1877 51.8292 32.2205 51.7376Z" fill="#D1BFC8"/>
<path d="M37.9843 54.7423C38.0244 54.8337 37.9806 54.9361 37.8865 54.9711L37.8577 54.9818C37.7636 55.0168 37.6547 54.9711 37.6145 54.8797C37.5744 54.7883 37.6182 54.6858 37.7123 54.6508L37.7411 54.6401C37.8353 54.6051 37.9441 54.6509 37.9843 54.7423Z" fill="#D1BFC8"/>
</g>
<g clip-path="url(#clip1_33_74)">
<path d="M25.0891 64.3547C25.0576 65.1051 25.6199 65.869 26.5014 66.1842C27.3829 66.4995 28.302 66.2654 28.7536 65.6652L25.0891 64.3547Z" fill="#D1BFC8"/>
<path d="M29.2643 65.8479C29.2328 66.5983 29.7951 67.3621 30.6766 67.6774C31.5581 67.9927 32.4772 67.7586 32.9287 67.1584L29.2643 65.8479Z" fill="#D1BFC8"/>
<path d="M33.1783 67.2477C33.1468 67.9981 33.7091 68.7619 34.5906 69.0772C35.4721 69.3924 36.3913 69.1584 36.8428 68.5582L33.1783 67.2477Z" fill="#D1BFC8"/>
<path d="M38.485 67.2666C38.6008 67.6116 38.2507 67.8661 37.908 67.7435L24.8597 63.0771C24.5171 62.9545 24.4092 62.5341 24.7283 62.3592C26.2054 61.5494 29.2184 62.073 32.3144 62.8735C35.4245 63.6778 37.9208 65.5856 38.485 67.2666Z" fill="#D1BFC8"/>
<path d="M23.3741 66.7368C23.1415 66.4218 23.4627 66.1275 23.8313 66.2593L36.7267 70.871C37.0953 71.0029 37.1564 71.4333 36.7766 71.5283C35.3112 71.8945 32.4381 71.3586 29.6174 70.3499C26.7983 69.3417 24.2664 67.9452 23.3741 66.7368Z" fill="#D1BFC8"/>
<path d="M28.6767 63.2293C28.5433 63.2918 28.4859 63.4506 28.5483 63.584C28.6109 63.7173 28.7696 63.7748 28.903 63.7123L28.6767 63.2293ZM31.338 63.3409C31.4766 63.3905 31.6293 63.3183 31.6789 63.1796C31.7284 63.0409 31.6562 62.8883 31.5176 62.8387L31.338 63.3409ZM28.7898 63.4708C28.903 63.7123 28.9029 63.7123 28.9029 63.7123C28.9029 63.7123 28.9029 63.7123 28.9029 63.7123C28.9028 63.7124 28.9028 63.7123 28.9029 63.7123C28.9029 63.7123 28.9031 63.7122 28.9033 63.7121C28.9038 63.7119 28.9047 63.7115 28.9059 63.7109C28.9084 63.7098 28.9124 63.708 28.9178 63.7055C28.9285 63.7007 28.945 63.6934 28.9665 63.684C29.0097 63.6654 29.0732 63.6388 29.153 63.6078C29.3129 63.5457 29.5361 63.4668 29.7894 63.3991C30.3105 63.26 30.9016 63.1848 31.338 63.3409L31.5176 62.8387C30.9189 62.6246 30.191 62.7399 29.6518 62.8838C29.3751 62.9577 29.1329 63.0435 28.9599 63.1106C28.8732 63.1443 28.8035 63.1735 28.7549 63.1945C28.7306 63.205 28.7116 63.2134 28.6984 63.2194C28.6918 63.2224 28.6866 63.2247 28.683 63.2264C28.6812 63.2273 28.6797 63.2279 28.6787 63.2284C28.6781 63.2287 28.6777 63.2289 28.6774 63.229C28.6772 63.2291 28.6771 63.2292 28.6769 63.2292C28.6769 63.2292 28.6768 63.2293 28.6768 63.2293C28.6767 63.2293 28.6767 63.2293 28.7898 63.4708Z" fill="white"/>
<path d="M30.5513 63.7227C30.4166 63.7824 30.356 63.9399 30.4157 64.0746C30.4754 64.2092 30.633 64.2699 30.7676 64.2101L30.5513 63.7227ZM33.2097 63.889C33.3473 63.9415 33.5014 63.8724 33.5538 63.7348C33.6063 63.5972 33.5372 63.4431 33.3996 63.3906L33.2097 63.889ZM30.6594 63.9664C30.7676 64.2101 30.7675 64.2102 30.7675 64.2102C30.7675 64.2102 30.7675 64.2102 30.7674 64.2102C30.7674 64.2102 30.7674 64.2102 30.7675 64.2102C30.7675 64.2102 30.7677 64.2101 30.7679 64.21C30.7684 64.2098 30.7693 64.2094 30.7706 64.2089C30.7731 64.2078 30.7771 64.206 30.7825 64.2037C30.7934 64.1991 30.8099 64.1921 30.8317 64.1832C30.8752 64.1655 30.9393 64.1402 31.0197 64.1108C31.1808 64.052 31.4056 63.9777 31.6603 63.9153C32.1841 63.787 32.7766 63.724 33.2097 63.889L33.3996 63.3906C32.8055 63.1643 32.0754 63.2645 31.5334 63.3973C31.2551 63.4655 31.0112 63.5462 30.8369 63.6098C30.7495 63.6417 30.6792 63.6694 30.6302 63.6894C30.6057 63.6994 30.5865 63.7075 30.5732 63.7132C30.5665 63.716 30.5613 63.7182 30.5576 63.7199C30.5558 63.7207 30.5544 63.7213 30.5533 63.7218C30.5527 63.722 30.5523 63.7222 30.552 63.7223C30.5518 63.7224 30.5517 63.7225 30.5516 63.7225C30.5515 63.7226 30.5514 63.7226 30.5514 63.7226C30.5513 63.7226 30.5513 63.7227 30.6594 63.9664Z" fill="white"/>
<path d="M32.1998 64.4776C32.0659 64.539 32.0072 64.6973 32.0686 64.8312C32.1301 64.965 32.2884 65.0237 32.4222 64.9623L32.1998 64.4776ZM34.8601 64.6107C34.9984 64.6614 35.1516 64.5904 35.2023 64.4521C35.253 64.3139 35.182 64.1607 35.0438 64.1099L34.8601 64.6107ZM32.311 64.7199C32.4222 64.9623 32.4222 64.9623 32.4221 64.9624C32.4221 64.9624 32.4221 64.9624 32.4221 64.9624C32.4221 64.9624 32.4221 64.9624 32.4221 64.9624C32.4221 64.9623 32.4223 64.9623 32.4225 64.9622C32.423 64.962 32.4239 64.9615 32.4252 64.961C32.4277 64.9599 32.4316 64.9581 32.437 64.9557C32.4478 64.9509 32.4643 64.9437 32.486 64.9346C32.5293 64.9163 32.593 64.8902 32.673 64.8599C32.8334 64.7991 33.0573 64.7219 33.3112 64.6564C33.8333 64.5215 34.425 64.4511 34.8601 64.6107L35.0438 64.1099C34.4469 63.891 33.7181 64.0004 33.1778 64.14C32.9004 64.2116 32.6575 64.2954 32.484 64.3612C32.3971 64.3941 32.3271 64.4227 32.2783 64.4433C32.254 64.4536 32.2349 64.4619 32.2216 64.4678C32.215 64.4707 32.2098 64.473 32.2062 64.4747C32.2043 64.4755 32.2029 64.4762 32.2018 64.4767C32.2013 64.4769 32.2009 64.4771 32.2005 64.4772C32.2004 64.4773 32.2002 64.4774 32.2001 64.4774C32.2 64.4775 32.2 64.4775 32.1999 64.4775C32.1999 64.4775 32.1998 64.4776 32.311 64.7199Z" fill="white"/>
<path d="M23.4287 65.0276C23.3015 64.9535 23.1382 64.9966 23.0641 65.1239C22.9899 65.2511 23.033 65.4144 23.1603 65.4885L23.4287 65.0276ZM27.7862 67.3059L27.7003 67.5584L27.7862 67.3059ZM35.6144 70.1055L35.5496 70.3642L35.6144 70.1055ZM37.6895 70.6798C37.8362 70.6919 37.9651 70.5828 37.9772 70.436C37.9894 70.2892 37.8802 70.1604 37.7335 70.1482L37.6895 70.6798ZM23.1603 65.4885C24.8414 66.4677 25.8585 66.9314 27.7003 67.5584L27.8721 67.0535C26.0639 66.438 25.0792 65.989 23.4287 65.0276L23.1603 65.4885ZM27.7003 67.5584C28.4926 67.828 29.1481 67.9489 29.7804 68.0681C30.4125 68.1872 31.0218 68.3048 31.7505 68.5654L31.9301 68.0632C31.1584 67.7872 30.5129 67.6634 29.8792 67.544C29.2456 67.4245 28.6243 67.3095 27.8721 67.0535L27.7003 67.5584ZM31.7505 68.5654C32.4714 68.8232 32.9953 69.1563 33.5605 69.4916C34.1249 69.8264 34.7201 70.1561 35.5496 70.3642L35.6793 69.8468C34.9263 69.658 34.3847 69.3604 33.8326 69.0329C33.2816 68.706 32.7096 68.342 31.9301 68.0632L31.7505 68.5654ZM35.5496 70.3642C35.9678 70.469 36.5057 70.5477 36.9316 70.5999C37.1461 70.6262 37.3351 70.6461 37.4706 70.6595C37.5383 70.6662 37.5928 70.6712 37.6304 70.6746C37.6492 70.6763 37.6638 70.6776 37.6738 70.6784C37.6788 70.6789 37.6827 70.6792 37.6853 70.6794C37.6866 70.6795 37.6876 70.6796 37.6883 70.6797C37.6886 70.6797 37.6889 70.6797 37.6891 70.6797C37.6892 70.6797 37.6893 70.6797 37.6893 70.6797C37.6894 70.6797 37.6894 70.6797 37.6894 70.6797C37.6894 70.6797 37.6895 70.6798 37.7115 70.414C37.7335 70.1482 37.7335 70.1482 37.7335 70.1482C37.7335 70.1482 37.7335 70.1482 37.7335 70.1482C37.7334 70.1482 37.7334 70.1482 37.7333 70.1482C37.7332 70.1482 37.733 70.1482 37.7327 70.1482C37.7322 70.1481 37.7313 70.1481 37.7302 70.148C37.7278 70.1478 37.7243 70.1475 37.7196 70.147C37.7103 70.1462 37.6963 70.145 37.6782 70.1434C37.6419 70.1401 37.5889 70.1352 37.5229 70.1287C37.3906 70.1157 37.2059 70.0962 36.9965 70.0706C36.5746 70.0189 36.0639 69.9433 35.6793 69.8468L35.5496 70.3642Z" fill="#D1BFC8"/>
<path d="M24.3624 63.5062C24.3882 63.4342 24.4675 63.3966 24.5395 63.4224L37.978 68.2284C38.05 68.2541 38.0875 68.3334 38.0618 68.4055C38.036 68.4775 37.9567 68.5151 37.8847 68.4893L24.4462 63.6833C24.3742 63.6576 24.3366 63.5783 24.3624 63.5062Z" fill="#D1BFC8"/>
<path d="M34.5291 69.0198L32.656 66.5005L37.0705 68.0792L34.5291 69.0198Z" stroke="#D1BFC8" stroke-width="0.3"/>
</g>
<g clip-path="url(#clip2_33_74)">
<path d="M19.5697 64.7834L19.5697 64.7834C19.5425 64.8406 19.5044 64.8725 19.4759 64.8865C19.449 64.8995 19.437 64.8951 19.4357 64.8946L19.4356 64.8946L12.4811 62.4075L12.4811 62.4075C12.4798 62.407 12.4677 62.4028 12.4552 62.3757C12.442 62.3468 12.4327 62.2979 12.448 62.2365L14.9546 52.1532C15.026 51.8661 15.3296 51.7034 15.6082 51.803L23.7426 54.7121C24.0211 54.8117 24.1528 55.1301 24.0259 55.3974L19.5697 64.7834Z" fill="white" stroke="#D1BFC8"/>
<path d="M14.7528 49.4812C14.8788 49.129 15.2298 48.9324 15.5367 49.0421L25.5489 52.6228C25.8558 52.7325 26.0025 53.1071 25.8765 53.4594L25.4988 54.5152L14.3752 50.5371L14.7528 49.4812Z" fill="#D1BFC8"/>
<path d="M16.2463 47.8111C16.3722 47.4588 16.7232 47.2622 17.0301 47.372L25.3397 50.3437C25.6466 50.4535 25.7933 50.828 25.6673 51.1803L25.2897 52.2362L15.8686 48.867L16.2463 47.8111Z" fill="#D1BFC8"/>
<path d="M20.5963 44.2388C20.5963 44.2388 21.1266 44.546 20.8532 45.3103C20.5799 46.0747 20.0123 45.8717 19.7762 46.5318C19.5402 47.192 19.8592 48.0898 19.8592 48.0898" fill="#D1BFC8"/>
<path d="M20.5963 44.2388C20.5963 44.2388 21.1266 44.546 20.8532 45.3103C20.5799 46.0747 20.0123 45.8717 19.7762 46.5318C19.5402 47.192 19.8592 48.0898 19.8592 48.0898" stroke="#D1BFC8" stroke-linecap="round" stroke-linejoin="round"/>
<path d="M22.1855 44.8071C22.1855 44.8071 22.7158 45.1143 22.4424 45.8787C22.1691 46.643 21.6016 46.4401 21.3655 47.1002C21.1294 47.7603 21.4484 48.6582 21.4484 48.6582" fill="#D1BFC8"/>
<path d="M22.1855 44.8071C22.1855 44.8071 22.7158 45.1143 22.4424 45.8787C22.1691 46.643 21.6016 46.4401 21.3655 47.1002C21.1294 47.7603 21.4484 48.6582 21.4484 48.6582" stroke="#D1BFC8" stroke-linecap="round" stroke-linejoin="round"/>
<path d="M23.7745 45.3754C23.7745 45.3754 24.3048 45.6826 24.0314 46.4469C23.7581 47.2113 23.1905 47.0083 22.9545 47.6684C22.7184 48.3286 23.0374 49.2264 23.0374 49.2264" fill="#D1BFC8"/>
<path d="M23.7745 45.3754C23.7745 45.3754 24.3048 45.6826 24.0314 46.4469C23.7581 47.2113 23.1905 47.0083 22.9545 47.6684C22.7184 48.3286 23.0374 49.2264 23.0374 49.2264" stroke="#D1BFC8" stroke-linecap="round" stroke-linejoin="round"/>
</g>
<path d="M89.9551 18.6H79.4911V48H73.0351V18.6H62.5711V13.296H89.9551V18.6ZM109.457 34.896L105.233 23.352C105.025 22.84 104.809 22.232 104.585 21.528C104.361 20.824 104.137 20.064 103.913 19.248C103.705 20.064 103.489 20.832 103.265 21.552C103.041 22.256 102.825 22.872 102.617 23.4L98.4173 34.896H109.457ZM120.857 48H115.865C115.305 48 114.849 47.864 114.497 47.592C114.145 47.304 113.881 46.952 113.705 46.536L111.113 39.456H96.7373L94.1453 46.536C94.0173 46.904 93.7693 47.24 93.4013 47.544C93.0333 47.848 92.5773 48 92.0333 48H86.9933L100.649 13.296H107.225L120.857 48ZM130.905 27.84H132.417C133.025 27.84 133.529 27.76 133.929 27.6C134.329 27.424 134.673 27.152 134.961 26.784L144.537 14.664C144.937 14.152 145.353 13.8 145.785 13.608C146.233 13.4 146.793 13.296 147.465 13.296H153.033L141.345 27.72C140.657 28.6 139.945 29.224 139.209 29.592C139.737 29.784 140.209 30.056 140.625 30.408C141.057 30.744 141.465 31.192 141.849 31.752L153.897 48H148.209C147.441 48 146.865 47.896 146.481 47.688C146.113 47.464 145.801 47.144 145.545 46.728L135.729 33.912C135.425 33.48 135.073 33.176 134.673 33C134.273 32.824 133.697 32.736 132.945 32.736H130.905V48H124.449V13.296H130.905V27.84ZM163.836 18.432V28.056H175.98V33.024H163.836V42.84H179.244V48H157.356V13.296H179.244V18.432H163.836Z" fill="#1CBABA"/>
<path d="M78.0511 75.896L73.8271 64.352C73.6191 63.84 73.4031 63.232 73.1791 62.528C72.9551 61.824 72.7311 61.064 72.5071 60.248C72.2991 61.064 72.0831 61.832 71.8591 62.552C71.6351 63.256 71.4191 63.872 71.2111 64.4L67.0111 75.896H78.0511ZM89.4511 89H84.4591C83.8991 89 83.4431 88.864 83.0911 88.592C82.7391 88.304 82.4751 87.952 82.2991 87.536L79.7071 80.456H65.3311L62.7391 87.536C62.6111 87.904 62.3631 88.24 61.9951 88.544C61.6271 88.848 61.1711 89 60.6271 89H55.5871L69.2431 54.296H75.8191L89.4511 89ZM136.922 54.296L126.146 89H120.314L112.73 65.288C112.522 64.712 112.33 64.008 112.154 63.176C112.058 63.576 111.962 63.952 111.866 64.304C111.77 64.656 111.666 64.984 111.554 65.288L103.898 89H98.0423L87.2903 54.296H92.6903C93.2503 54.296 93.7143 54.432 94.0823 54.704C94.4663 54.96 94.7223 55.312 94.8503 55.76L100.754 76.52C100.882 77.032 101.002 77.592 101.114 78.2C101.242 78.792 101.37 79.416 101.498 80.072C101.626 79.4 101.762 78.768 101.906 78.176C102.066 77.584 102.234 77.032 102.41 76.52L109.226 55.76C109.354 55.392 109.602 55.056 109.97 54.752C110.354 54.448 110.818 54.296 111.362 54.296H113.258C113.818 54.296 114.274 54.432 114.626 54.704C114.978 54.976 115.242 55.328 115.418 55.76L122.21 76.52C122.546 77.512 122.85 78.656 123.122 79.952C123.33 78.688 123.562 77.544 123.818 76.52L129.722 55.76C129.818 55.36 130.058 55.016 130.442 54.728C130.842 54.44 131.314 54.296 131.858 54.296H136.922ZM157.223 75.896L152.999 64.352C152.791 63.84 152.575 63.232 152.351 62.528C152.127 61.824 151.903 61.064 151.679 60.248C151.471 61.064 151.255 61.832 151.031 62.552C150.807 63.256 150.591 63.872 150.383 64.4L146.183 75.896H157.223ZM168.623 89H163.631C163.071 89 162.615 88.864 162.263 88.592C161.911 88.304 161.647 87.952 161.471 87.536L158.879 80.456H144.503L141.911 87.536C141.783 87.904 141.535 88.24 141.167 88.544C140.799 88.848 140.343 89 139.799 89H134.759L148.415 54.296H154.991L168.623 89ZM183.51 75.56V89H177.078V75.56L164.43 54.296H170.118C170.678 54.296 171.118 54.432 171.438 54.704C171.774 54.976 172.054 55.32 172.278 55.736L178.614 67.328C178.982 68.016 179.302 68.664 179.574 69.272C179.862 69.88 180.118 70.488 180.342 71.096C180.55 70.488 180.79 69.88 181.062 69.272C181.334 68.664 181.646 68.016 181.998 67.328L188.31 55.736C188.486 55.384 188.75 55.056 189.102 54.752C189.454 54.448 189.902 54.296 190.446 54.296H196.158L183.51 75.56Z" fill="#1CBABA"/>
<path d="M34.1592 40.68C35.3112 40.68 36.2552 40.34 36.9912 39.66C37.7352 38.988 38.2152 38.096 38.4312 36.984L41.1432 22.872H38.5032L37.3512 31.188L37.2792 32.124H37.1472L37.0752 31.188L35.9712 22.872H33.3192L35.8872 36.384C36.0232 37.072 35.8552 37.588 35.3832 37.932C34.9192 38.276 34.3192 38.456 33.5832 38.472C33.4472 38.48 33.3832 38.48 33.3912 38.472C33.3992 38.472 33.3672 38.48 33.2952 38.496V40.668C33.5352 40.676 33.7352 40.68 33.8952 40.68C34.0632 40.68 34.1512 40.68 34.1592 40.68ZM45.7315 36.192C46.4195 36.192 47.0315 36.04 47.5675 35.736C48.1115 35.432 48.5395 35.024 48.8515 34.512C49.1715 34 49.3315 33.432 49.3315 32.808V26.064C49.3315 25.448 49.1715 24.884 48.8515 24.372C48.5315 23.86 48.0995 23.452 47.5555 23.148C47.0195 22.836 46.4115 22.68 45.7315 22.68C45.0515 22.68 44.4435 22.836 43.9075 23.148C43.3715 23.452 42.9475 23.868 42.6355 24.396C42.3315 24.916 42.1795 25.496 42.1795 26.136V32.736C42.1795 33.384 42.3315 33.968 42.6355 34.488C42.9475 35.008 43.3715 35.424 43.9075 35.736C44.4435 36.04 45.0515 36.192 45.7315 36.192ZM45.7435 34.056C45.3995 34.056 45.1555 33.964 45.0115 33.78C44.8675 33.596 44.7795 33.388 44.7475 33.156C44.7235 32.924 44.7115 32.74 44.7115 32.604V26.268C44.7115 25.284 45.0515 24.792 45.7315 24.792C46.4435 24.792 46.7995 25.284 46.7995 26.268V32.604C46.7995 33.572 46.4475 34.056 45.7435 34.056ZM53.4132 36.192C53.7252 36.192 54.0612 36.076 54.4212 35.844C54.7892 35.604 55.2452 35.212 55.7892 34.668V36H58.4892V22.872H55.7892V32.844C55.7892 32.996 55.6932 33.18 55.5012 33.396C55.3172 33.604 55.0372 33.708 54.6612 33.708C54.3652 33.708 54.1932 33.648 54.1452 33.528C54.0972 33.408 54.0732 33.324 54.0732 33.276V22.872H51.3492V33.624C51.3492 34.104 51.4492 34.54 51.6492 34.932C51.8572 35.316 52.1172 35.624 52.4292 35.856C52.7492 36.08 53.0772 36.192 53.4132 36.192ZM60.7951 36H63.5311V26.88C63.5311 26.496 63.6711 26.164 63.9511 25.884C64.2311 25.596 64.5871 25.392 65.0191 25.272C65.4591 25.152 65.9111 25.152 66.3751 25.272V22.68C65.9031 22.68 65.4471 22.78 65.0071 22.98C64.5751 23.172 64.2191 23.424 63.9391 23.736C63.6671 24.048 63.5311 24.38 63.5311 24.732V22.872H60.7951V36Z" fill="#948B90"/>
<defs>
<clipPath id="clip0_33_74">
<rect width="14" height="13" fill="white" transform="translate(30.4121 47.2697) rotate(19.6785)"/>
</clipPath>
<clipPath id="clip1_33_74">
<rect width="16" height="8" fill="white" transform="translate(24.7561 60.1152) rotate(19.6785)"/>
</clipPath>
<clipPath id="clip2_33_74">
<rect width="12" height="21" fill="white" transform="translate(17.2297 42.5552) rotate(19.6785)"/>
</clipPath>
</defs>
</svg>
