<svg width="27" height="45" viewBox="0 0 27 45" fill="none" xmlns="http://www.w3.org/2000/svg">
<path d="M2.19556 19.7581H24.385L21.924 43.1637L21.924 43.1638C21.8929 43.4596 21.6928 43.5541 21.5993 43.5541H4.98119C4.88773 43.5541 4.68763 43.4596 4.65652 43.1637L2.19556 19.7581Z" fill="white" stroke="#1CBABA" stroke-width="2"/>
<path d="M0.5 15.7621C0.5 15.1937 0.911646 14.8105 1.32787 14.8105H25.2527C25.6689 14.8105 26.0805 15.1936 26.0805 15.7621V17.6651H0.5V15.7621Z" fill="#C1EFE7" stroke="#1CBABA"/>
<path d="M2.39868 11.3145C2.39868 10.746 2.81033 10.3629 3.22655 10.3629H23.0829C23.4991 10.3629 23.9108 10.746 23.9108 11.3145V13.2174H2.39868V11.3145Z" fill="#C1EFE7" stroke="#1CBABA"/>
<path d="M8.40814 0.967651C8.40814 0.967651 9.7643 1.20485 9.7643 2.94436C9.7643 4.68386 8.40814 4.68386 8.40814 6.18615C8.40814 7.68847 9.7643 9.26981 9.7643 9.26981" stroke="#1CBABA" stroke-linecap="round" stroke-linejoin="round"/>
<path d="M12.2054 0.967651C12.2054 0.967651 13.5616 1.20485 13.5616 2.94436C13.5616 4.68386 12.2054 4.68386 12.2054 6.18615C12.2054 7.68847 13.5616 9.26981 13.5616 9.26981" stroke="#1CBABA" stroke-linecap="round" stroke-linejoin="round"/>
<path d="M16.0025 0.967651C16.0025 0.967651 17.3587 1.20485 17.3587 2.94436C17.3587 4.68386 16.0025 4.68386 16.0025 6.18615C16.0025 7.68847 17.3587 9.26981 17.3587 9.26981" stroke="#1CBABA" stroke-linecap="round" stroke-linejoin="round"/>
</svg>
