<svg width="20" height="23" viewBox="0 0 20 23" fill="none" xmlns="http://www.w3.org/2000/svg">
<circle cx="10" cy="13" r="10" fill="#1CBABA"/>
<path d="M13.757 18H12.218C12.086 18 11.981 17.967 11.903 17.901C11.831 17.829 11.771 17.751 11.723 17.667L9.428 14.094C9.404 14.178 9.377 14.262 9.347 14.346C9.323 14.424 9.287 14.496 9.239 14.562L7.115 17.667C7.055 17.751 6.989 17.829 6.917 17.901C6.851 17.967 6.758 18 6.638 18H5.207L8.402 13.32L5.333 8.883H6.872C7.004 8.883 7.1 8.904 7.16 8.946C7.22 8.988 7.274 9.048 7.322 9.126L9.563 12.546C9.611 12.372 9.686 12.204 9.788 12.042L11.75 9.162C11.804 9.078 11.861 9.012 11.921 8.964C11.987 8.91 12.065 8.883 12.155 8.883H13.631L10.562 13.239L13.757 18Z" fill="white"/>
</svg>
