<svg width="14" height="21" viewBox="0 0 14 21" fill="none" xmlns="http://www.w3.org/2000/svg">
<g clip-path="url(#clip0_33_2)">
<path d="M1.12431 9.25378H12.6581L11.387 20.1339L11.387 20.1339C11.3772 20.2175 11.3022 20.2919 11.1996 20.2919H2.5828C2.48025 20.2919 2.40517 20.2175 2.3954 20.1339L1.12431 9.25378Z" fill="#D1BFC8" stroke="#D1BFC8"/>
<path d="M0.25 7.35564C0.25 7.12339 0.442484 6.92822 0.688525 6.92822H13.094C13.34 6.92822 13.5325 7.12339 13.5325 7.35564V8.22702H0.25V7.35564Z" stroke="#D1BFC8" stroke-width="0.5"/>
<path d="M1.2345 5.28008C1.2345 5.04783 1.42698 4.85266 1.67302 4.85266H11.9689C12.2149 4.85266 12.4074 5.04784 12.4074 5.28008V6.15146H1.2345V5.28008Z" stroke="#D1BFC8" stroke-width="0.5"/>
<path d="M4.35974 0.451538C4.35974 0.451538 5.06293 0.562233 5.06293 1.374C5.06293 2.18577 4.35974 2.18577 4.35974 2.88684C4.35974 3.58792 5.06293 4.32588 5.06293 4.32588" stroke="#D1BFC8" stroke-linecap="round" stroke-linejoin="round"/>
<path d="M6.32874 0.451538C6.32874 0.451538 7.03192 0.562233 7.03192 1.374C7.03192 2.18577 6.32874 2.18577 6.32874 2.88684C6.32874 3.58792 7.03192 4.32588 7.03192 4.32588" stroke="#D1BFC8" stroke-linecap="round" stroke-linejoin="round"/>
<path d="M8.29761 0.451538C8.29761 0.451538 9.0008 0.562233 9.0008 1.374C9.0008 2.18577 8.29761 2.18577 8.29761 2.88684C8.29761 3.58792 9.0008 4.32588 9.0008 4.32588" stroke="#D1BFC8" stroke-linecap="round" stroke-linejoin="round"/>
</g>
<defs>
<clipPath id="clip0_33_2">
<rect width="14" height="21" fill="white"/>
</clipPath>
</defs>
</svg>
