<svg width="14" height="21" viewBox="0 0 14 21" fill="none" xmlns="http://www.w3.org/2000/svg">
<g clip-path="url(#clip0_9_184)">
<path d="M1.12436 9.25378H12.6581L11.387 20.1339L11.387 20.1339C11.3773 20.2175 11.3022 20.2919 11.1996 20.2919H2.58284C2.48029 20.2919 2.40522 20.2175 2.39544 20.1339L1.12436 9.25378Z" fill="#C1EFE7" stroke="#1CBABA"/>
<path d="M0.5 7.35564C0.5 7.26528 0.576705 7.17822 0.688525 7.17822H13.094C13.2058 7.17822 13.2825 7.26528 13.2825 7.35564V7.97702H0.5V7.35564Z" fill="#C1EFE7" stroke="#1CBABA"/>
<path d="M1.48448 5.28008C1.48448 5.18972 1.56119 5.10266 1.67301 5.10266H11.9689C12.0807 5.10266 12.1574 5.18973 12.1574 5.28008V5.90146H1.48448V5.28008Z" fill="#C1EFE7" stroke="#1CBABA"/>
<path d="M4.35976 0.451538C4.35976 0.451538 5.06295 0.562233 5.06295 1.374C5.06295 2.18577 4.35976 2.18577 4.35976 2.88684C4.35976 3.58792 5.06295 4.32588 5.06295 4.32588" stroke="#1CBABA" stroke-linecap="round" stroke-linejoin="round"/>
<path d="M6.32875 0.451538C6.32875 0.451538 7.03194 0.562233 7.03194 1.374C7.03194 2.18577 6.32875 2.18577 6.32875 2.88684C6.32875 3.58792 7.03194 4.32588 7.03194 4.32588" stroke="#1CBABA" stroke-linecap="round" stroke-linejoin="round"/>
<path d="M8.29759 0.451538C8.29759 0.451538 9.00078 0.562233 9.00078 1.374C9.00078 2.18577 8.29759 2.18577 8.29759 2.88684C8.29759 3.58792 9.00078 4.32588 9.00078 4.32588" stroke="#1CBABA" stroke-linecap="round" stroke-linejoin="round"/>
</g>
<defs>
<clipPath id="clip0_9_184">
<rect width="14" height="21" fill="white"/>
</clipPath>
</defs>
</svg>
