<svg width="31" height="30" viewBox="0 0 31 30" fill="none" xmlns="http://www.w3.org/2000/svg">
<path fill-rule="evenodd" clip-rule="evenodd" d="M29.0995 15.559C29.0995 8.25055 23.1406 2.32593 15.79 2.32593C8.43932 2.32593 2.48047 8.25055 2.48047 15.559C2.48047 22.8674 8.43932 28.792 15.79 28.792C23.1406 28.792 29.0995 22.8674 29.0995 15.559ZM20.4764 15.559C20.4764 12.9856 18.3782 10.8995 15.79 10.8995C13.2017 10.8995 11.1035 12.9856 11.1035 15.559C11.1035 18.1323 13.2017 20.2185 15.79 20.2185C18.3782 20.2185 20.4764 18.1323 20.4764 15.559Z" fill="#ED9D24"/>
<path d="M3.98145 18.7893L3.97936 18.7758L3.97546 18.7626C3.46633 17.0415 3.00469 13.4886 3.89702 10.3589C4.34211 8.79784 5.12066 7.35332 6.3867 6.28935C7.65047 5.22722 9.41718 4.5297 11.867 4.49029C12.0768 4.48692 12.3918 4.45195 12.7914 4.40756C14.0767 4.26484 16.2366 4.02502 18.5783 4.4277C21.6182 4.9504 24.8998 6.55704 26.7332 10.9022C29.1458 16.6201 25.1616 23.1149 18.913 25.7172C15.7666 26.7389 12.2296 26.3111 9.37514 24.9658C6.51376 23.6172 4.38059 21.3689 3.98145 18.7893ZM11.744 17.0556C12.4901 19.3211 14.8394 20.6134 17.0084 19.9073C19.1773 19.2012 20.3031 16.7777 19.557 14.5122C19.1876 13.3903 18.5289 12.5028 17.6286 12.0024C16.7252 11.5002 15.6042 11.4022 14.3427 11.8128C13.0813 12.2235 12.2357 12.9617 11.806 13.8979C11.3777 14.8309 11.3746 15.9338 11.744 17.0556Z" fill="#DB2B75" stroke="#DB2B75"/>
<path d="M10.3925 6.49171C10.4015 6.59412 10.3253 6.68433 10.2223 6.69317L10.2149 6.69378C10.1118 6.70262 10.021 6.62676 10.012 6.5243C10.0029 6.42189 10.0792 6.33169 10.1822 6.32285L10.1896 6.32223C10.2927 6.3134 10.3835 6.38926 10.3925 6.49171Z" fill="white"/>
<path d="M10.2892 13.0198C10.5088 13.001 10.6713 12.8087 10.6521 12.5904L10.6504 12.5715C10.6312 12.3532 10.4376 12.1914 10.218 12.2102C9.99832 12.2291 9.83584 12.4213 9.85506 12.6396L9.85671 12.6586C9.87593 12.8769 10.0695 13.0386 10.2892 13.0198Z" fill="white"/>
<path d="M22.7888 21.8024C23.0084 21.7836 23.1709 21.5913 23.1517 21.373L23.15 21.3541C23.1308 21.1358 22.9372 20.974 22.7176 20.9928C22.498 21.0116 22.3355 21.2039 22.3547 21.4222L22.3563 21.4412C22.3756 21.6595 22.5692 21.8212 22.7888 21.8024Z" fill="white"/>
<path d="M5.50158 15.2425C5.72122 15.2237 5.88366 15.0314 5.86449 14.8131L5.86279 14.7941C5.84361 14.5758 5.65001 14.4141 5.43036 14.4329C5.21076 14.4517 5.04828 14.644 5.06746 14.8623L5.06915 14.8812C5.08833 15.0996 5.28198 15.2613 5.50158 15.2425Z" fill="white"/>
<path d="M9.51158 9.04418C9.53076 9.26249 9.36828 9.45473 9.14867 9.47355C8.92903 9.49238 8.73542 9.33066 8.71625 9.11232L8.71455 9.09333C8.69537 8.87503 8.85785 8.68279 9.07746 8.66397C9.2971 8.64514 9.49071 8.8069 9.50989 9.0252L9.51158 9.04418Z" fill="white"/>
<path d="M22.4473 17.6744C22.6669 17.6555 22.8294 17.4633 22.8101 17.245L22.8085 17.226C22.7893 17.0077 22.5957 16.8459 22.376 16.8648C22.1564 16.8836 21.9939 17.0758 22.0131 17.2941L22.0148 17.3131C22.034 17.5314 22.2276 17.6932 22.4473 17.6744Z" fill="white"/>
<path d="M5.86327 18.2804C5.88244 18.4987 5.71996 18.6909 5.50036 18.7098C5.28071 18.7286 5.08711 18.5669 5.06793 18.3485L5.06624 18.3295C5.04706 18.1112 5.2095 17.919 5.42914 17.9002C5.64875 17.8813 5.84239 18.0431 5.86157 18.2614L5.86327 18.2804Z" fill="white"/>
<path d="M7.15609 11.8018C7.37573 11.783 7.53821 11.5907 7.51899 11.3724L7.51734 11.3534C7.49812 11.1351 7.30451 10.9734 7.08487 10.9922C6.86526 11.011 6.70278 11.2033 6.722 11.4216L6.72366 11.4406C6.74288 11.6589 6.93648 11.8206 7.15609 11.8018Z" fill="white"/>
<path d="M21.1558 19.9004C21.1751 20.1187 21.0126 20.3109 20.793 20.3298C20.5733 20.3486 20.3797 20.1869 20.3605 19.9685L20.3588 19.9495C20.3396 19.7312 20.5021 19.539 20.7217 19.5202C20.9414 19.5013 21.135 19.6631 21.1542 19.8814L21.1558 19.9004Z" fill="white"/>
<path d="M8.6333 19.9278C8.8529 19.909 9.01538 19.7167 8.99616 19.4984L8.99451 19.4794C8.97529 19.2611 8.78168 19.0994 8.56208 19.1182C8.34244 19.137 8.17996 19.3293 8.19918 19.5476L8.20083 19.5665C8.22005 19.7848 8.41365 19.9466 8.6333 19.9278Z" fill="white"/>
<path d="M7.49908 7.27016C7.50809 7.37257 7.43187 7.46277 7.32883 7.47161L7.32143 7.47222C7.21838 7.48106 7.12753 7.4052 7.11852 7.30274C7.10951 7.20033 7.18573 7.11013 7.28881 7.10129L7.29621 7.10068C7.39926 7.09184 7.49007 7.1677 7.49908 7.27016Z" fill="white"/>
<path d="M14.3545 9.90683C14.4575 9.89799 14.5337 9.80779 14.5247 9.70533C14.5157 9.60292 14.4249 9.52702 14.3218 9.53586L14.3144 9.53651C14.2114 9.54535 14.1351 9.63551 14.1442 9.73796C14.1532 9.84042 14.244 9.91628 14.3471 9.90744L14.3545 9.90683Z" fill="white"/>
<path d="M14.5201 22.7078C14.5291 22.8102 14.4529 22.9004 14.3498 22.9092L14.3424 22.9098C14.2394 22.9187 14.1485 22.8428 14.1395 22.7404C14.1305 22.638 14.2068 22.5477 14.3098 22.5389L14.3172 22.5383C14.4203 22.5295 14.5111 22.6053 14.5201 22.7078Z" fill="white"/>
<path d="M10.9732 22.5019C11.0763 22.4931 11.1525 22.4028 11.1435 22.3004C11.1345 22.198 11.0437 22.1221 10.9406 22.1309L10.9332 22.1316C10.8302 22.1404 10.7539 22.2306 10.7629 22.333C10.7719 22.4355 10.8628 22.5113 10.9658 22.5025L10.9732 22.5019Z" fill="white"/>
<path d="M5.43133 10.115C5.44034 10.2174 5.36412 10.3076 5.26108 10.3165L5.25368 10.3171C5.15059 10.3259 5.05978 10.25 5.05077 10.1476C5.04176 10.0452 5.11798 9.95498 5.22102 9.94614L5.22842 9.94552C5.33147 9.93669 5.42232 10.0126 5.43133 10.115Z" fill="white"/>
<path d="M11.7999 8.195C11.9029 8.18616 11.9792 8.09595 11.9702 7.99354C11.9612 7.89109 11.8703 7.81523 11.7673 7.82406L11.7599 7.82468C11.6568 7.83352 11.5806 7.92372 11.5896 8.02613C11.5986 8.12858 11.6895 8.20445 11.7925 8.19561L11.7999 8.195Z" fill="white"/>
<path d="M23.6385 12.7751C23.6577 12.9934 23.4952 13.1857 23.2756 13.2045C23.056 13.2233 22.8624 13.0616 22.8432 12.8433L22.8415 12.8243C22.8223 12.606 22.9848 12.4137 23.2044 12.3949C23.4241 12.3761 23.6177 12.5379 23.6368 12.7562L23.6385 12.7751Z" fill="white"/>
<path d="M18.1701 21.1443C18.1791 21.2468 18.1029 21.3369 17.9998 21.3458L17.9924 21.3464C17.8894 21.3552 17.7986 21.2793 17.7895 21.1769C17.7805 21.0745 17.8567 20.9843 17.9598 20.9755L17.9672 20.9748C18.0702 20.966 18.1611 21.0419 18.1701 21.1443Z" fill="white"/>
<path d="M11.1435 20.7333C11.1525 20.8357 11.0763 20.9259 10.9732 20.9347L10.9658 20.9354C10.8628 20.9442 10.7719 20.8683 10.7629 20.7659C10.7539 20.6635 10.8301 20.5733 10.9332 20.5645L10.9406 20.5638C11.0437 20.555 11.1345 20.6309 11.1435 20.7333Z" fill="white"/>
<path d="M10.1465 18.469C10.2495 18.4602 10.3257 18.37 10.3167 18.2676C10.3077 18.1652 10.2168 18.0893 10.1138 18.0981L10.1064 18.0988C10.0034 18.1076 9.92714 18.1978 9.93615 18.3002C9.94516 18.4026 10.036 18.4785 10.1391 18.4697L10.1465 18.469Z" fill="white"/>
<path d="M8.66338 21.9663C8.67239 22.0688 8.59617 22.1589 8.49313 22.1678L8.48573 22.1684C8.38265 22.1773 8.29184 22.1014 8.28283 21.999C8.27382 21.8965 8.35004 21.8063 8.45308 21.7975L8.46048 21.7968C8.56352 21.788 8.65437 21.8639 8.66338 21.9663Z" fill="white"/>
<path d="M19.2765 9.08149C19.3379 8.98623 19.3096 8.86036 19.2132 8.80032C19.1169 8.74032 18.9889 8.76888 18.9275 8.86414L18.4858 9.54904C18.4244 9.64426 18.4527 9.77018 18.5491 9.83018C18.6455 9.89022 18.7735 9.86166 18.8349 9.7664L19.2765 9.08149Z" fill="white"/>
<path d="M7.48595 13.2242C7.59168 13.1818 7.71254 13.2324 7.75594 13.3371L8.06627 14.0865C8.10967 14.1913 8.05912 14.3106 7.95339 14.3529C7.8477 14.3953 7.72684 14.3447 7.68344 14.24L7.37307 13.4906C7.32971 13.3859 7.38026 13.2666 7.48595 13.2242Z" fill="white"/>
<path d="M11.4101 10.2838C11.4666 10.1855 11.4317 10.0611 11.3324 10.006C11.233 9.95085 11.1067 9.98586 11.0502 10.0842L10.6448 10.79C10.5884 10.8883 10.6232 11.0126 10.7226 11.0678C10.822 11.1229 10.9483 11.0878 11.0047 10.9895L11.4101 10.2838Z" fill="white"/>
<path d="M5.97323 11.6416C6.07102 11.6994 6.10235 11.8246 6.04321 11.9213L5.61822 12.6161C5.55903 12.7128 5.4318 12.7443 5.33401 12.6866C5.23621 12.6288 5.20488 12.5036 5.26403 12.4069L5.68902 11.7121C5.74817 11.6154 5.87539 11.5838 5.97323 11.6416Z" fill="white"/>
<path d="M19.4961 23.7393C19.4962 23.5149 19.3133 23.333 19.0876 23.3331H19.0783C18.8525 23.3332 18.6695 23.5152 18.6694 23.7396C18.6694 23.964 18.8523 24.1458 19.078 24.1458H19.0873C19.313 24.1457 19.496 23.9637 19.4961 23.7393Z" fill="white"/>
<path d="M24.3057 15.567C24.3985 15.3618 24.6429 15.2695 24.8499 15.3599C25.0568 15.4502 25.1507 15.6904 25.0579 15.8954C24.9651 16.1006 24.7208 16.1929 24.5138 16.1026C24.3068 16.0122 24.2129 15.772 24.3057 15.567Z" fill="white"/>
<path d="M8.76165 16.0252C8.93963 15.9029 8.98279 15.6615 8.85804 15.4859L8.83651 15.4556C8.71176 15.2801 8.46637 15.2369 8.28842 15.3592C8.11044 15.4815 8.06729 15.7229 8.19204 15.8985L8.21357 15.9287C8.33831 16.1043 8.58371 16.1475 8.76165 16.0252Z" fill="white"/>
<path d="M16.1997 7.89404C16.4255 7.89396 16.6084 8.07581 16.6083 8.30019C16.6082 8.52462 16.4252 8.70659 16.1995 8.70667H16.1902C15.9644 8.70676 15.7815 8.52491 15.7816 8.30048C15.7817 8.0761 15.9647 7.89413 16.1904 7.89404H16.1997Z" fill="white"/>
<path d="M7.10165 8.30353C7.10173 8.07911 6.91883 7.89726 6.69315 7.89734H6.68381C6.45813 7.89742 6.27511 8.07943 6.27502 8.30382C6.27494 8.52824 6.45784 8.71009 6.68352 8.71001H6.69286C6.91854 8.70993 7.10161 8.52796 7.10165 8.30353Z" fill="white"/>
<path d="M21.3595 10.3532C21.5114 10.5206 21.4966 10.7773 21.3263 10.9265L21.2743 10.9721C21.1041 11.1214 20.843 11.1066 20.6911 10.9392C20.5393 10.7717 20.5542 10.515 20.7244 10.3658L20.7764 10.3202C20.9466 10.171 21.2077 10.1858 21.3595 10.3532Z" fill="white"/>
</svg>
