<svg width="24" height="23" viewBox="0 0 24 23" fill="none" xmlns="http://www.w3.org/2000/svg">
<path fill-rule="evenodd" clip-rule="evenodd" d="M22.5287 11.9285C22.5287 6.32541 17.9153 1.7832 12.2245 1.7832C6.53372 1.7832 1.92041 6.32541 1.92041 11.9285C1.92041 17.5316 6.53372 22.0739 12.2245 22.0739C17.9153 22.0739 22.5287 17.5316 22.5287 11.9285ZM15.8528 11.9285C15.8528 9.9556 14.2283 8.35625 12.2245 8.35625C10.2207 8.35625 8.59634 9.9556 8.59634 11.9285C8.59634 13.9015 10.2207 15.5008 12.2245 15.5008C14.2283 15.5008 15.8528 13.9015 15.8528 11.9285Z" fill="#D1BFC8"/>
<path d="M3.08241 14.4052L3.08079 14.3948L3.07777 14.3847C2.6836 13.0652 2.3262 10.3414 3.01704 7.94187C3.36162 6.74508 3.96438 5.63761 4.94454 4.8219C5.92294 4.00761 7.29071 3.47284 9.18738 3.44263C9.34975 3.44004 9.59365 3.41323 9.90303 3.3792C10.8981 3.26978 12.5703 3.08592 14.3832 3.39464C16.7366 3.79538 19.2772 5.02714 20.6967 8.35845C22.5645 12.7421 19.48 17.7215 14.6423 19.7166C12.2064 20.4999 9.46809 20.1719 7.25817 19.1405C5.0429 18.1066 3.39142 16.3829 3.08241 14.4052ZM9.09215 13.076C9.66975 14.8129 11.4886 15.8036 13.1678 15.2623C14.8469 14.721 15.7185 12.863 15.1409 11.1261C14.8549 10.266 14.345 9.58558 13.6479 9.20189C12.9485 8.81691 12.0807 8.74173 11.1041 9.05655C10.1274 9.3714 9.47282 9.93738 9.14012 10.6551C8.80854 11.3704 8.80613 12.216 9.09215 13.076Z" fill="white" stroke="#D1BFC8"/>
<path d="M8.04592 4.97703C8.05289 5.05554 7.99389 5.1247 7.91411 5.13148L7.90838 5.13195C7.82861 5.13872 7.75827 5.08056 7.75129 5.00201C7.74432 4.9235 7.80332 4.85434 7.8831 4.84757L7.88886 4.84709C7.96864 4.84032 8.03894 4.89848 8.04592 4.97703Z" fill="#D1BFC8"/>
<path d="M7.96595 9.98193C8.13597 9.9675 8.26176 9.82011 8.24688 9.65275L8.2456 9.63819C8.23072 9.47083 8.08083 9.34682 7.91082 9.36125C7.74077 9.37568 7.61498 9.52307 7.62986 9.69043L7.63114 9.70499C7.64602 9.87238 7.79591 9.99636 7.96595 9.98193Z" fill="#D1BFC8"/>
<path d="M17.6429 16.7152C17.813 16.7008 17.9388 16.5534 17.9239 16.386L17.9226 16.3715C17.9077 16.2041 17.7578 16.0801 17.5878 16.0945C17.4178 16.109 17.292 16.2563 17.3069 16.4237L17.3081 16.4383C17.323 16.6057 17.4729 16.7296 17.6429 16.7152Z" fill="#D1BFC8"/>
<path d="M4.25941 11.686C4.42945 11.6716 4.55521 11.5242 4.54037 11.3569L4.53905 11.3423C4.52421 11.1749 4.37432 11.0509 4.20427 11.0654C4.03425 11.0798 3.90846 11.2272 3.92331 11.3945L3.92462 11.4091C3.93947 11.5765 4.08939 11.7005 4.25941 11.686Z" fill="#D1BFC8"/>
<path d="M7.36385 6.934C7.3787 7.10137 7.25291 7.24875 7.08289 7.26318C6.91284 7.27762 6.76296 7.15364 6.74811 6.98624L6.7468 6.97168C6.73195 6.80432 6.85774 6.65693 7.02776 6.6425C7.1978 6.62807 7.34769 6.75208 7.36254 6.91944L7.36385 6.934Z" fill="#D1BFC8"/>
<path d="M17.3787 13.5504C17.5487 13.536 17.6745 13.3886 17.6596 13.2212L17.6583 13.2067C17.6434 13.0393 17.4936 12.9153 17.3235 12.9297C17.1535 12.9442 17.0277 13.0916 17.0426 13.2589L17.0439 13.2735C17.0587 13.4408 17.2086 13.5648 17.3787 13.5504Z" fill="#D1BFC8"/>
<path d="M4.53939 14.0151C4.55424 14.1824 4.42844 14.3298 4.25843 14.3442C4.08838 14.3587 3.93849 14.2347 3.92365 14.0673L3.92233 14.0527C3.90749 13.8854 4.03324 13.738 4.20329 13.7236C4.37331 13.7091 4.52323 13.8331 4.53808 14.0005L4.53939 14.0151Z" fill="#D1BFC8"/>
<path d="M5.54026 9.0481C5.71031 9.03367 5.8361 8.88628 5.82122 8.71891L5.81994 8.70436C5.80506 8.53696 5.65517 8.41298 5.48513 8.42741C5.31511 8.44184 5.18932 8.58923 5.2042 8.7566L5.20548 8.77115C5.22036 8.93852 5.37025 9.06253 5.54026 9.0481Z" fill="#D1BFC8"/>
<path d="M16.3788 15.257C16.3937 15.4244 16.2679 15.5718 16.0979 15.5862C15.9279 15.6006 15.778 15.4766 15.7631 15.3092L15.7618 15.2947C15.7469 15.1273 15.8727 14.9799 16.0428 14.9655C16.2128 14.9511 16.3627 15.0751 16.3776 15.2424L16.3788 15.257Z" fill="#D1BFC8"/>
<path d="M6.68385 15.2781C6.85386 15.2637 6.97966 15.1163 6.96478 14.9489L6.9635 14.9343C6.94862 14.7669 6.79873 14.643 6.62871 14.6574C6.45866 14.6718 6.33287 14.8192 6.34775 14.9866L6.34903 15.0011C6.36391 15.1685 6.5138 15.2925 6.68385 15.2781Z" fill="#D1BFC8"/>
<path d="M5.8058 5.57383C5.81278 5.65235 5.75377 5.7215 5.674 5.72828L5.66827 5.72875C5.58849 5.73552 5.51816 5.67736 5.51118 5.59882C5.5042 5.5203 5.56321 5.45114 5.64302 5.44437L5.64875 5.4439C5.72852 5.43712 5.79883 5.49528 5.8058 5.57383Z" fill="#D1BFC8"/>
<path d="M11.1132 7.59537C11.193 7.5886 11.252 7.51944 11.245 7.44089C11.238 7.36238 11.1677 7.30419 11.0879 7.31096L11.0822 7.31147C11.0024 7.31824 10.9434 7.38736 10.9504 7.46591C10.9574 7.54446 11.0277 7.60262 11.1075 7.59584L11.1132 7.59537Z" fill="#D1BFC8"/>
<path d="M11.2414 17.4093C11.2484 17.4878 11.1893 17.5569 11.1095 17.5637L11.1038 17.5642C11.024 17.571 10.9537 17.5128 10.9467 17.4343C10.9398 17.3557 10.9988 17.2866 11.0786 17.2798L11.0843 17.2793C11.1641 17.2726 11.2344 17.3307 11.2414 17.4093Z" fill="#D1BFC8"/>
<path d="M8.49541 17.2515C8.57521 17.2447 8.63422 17.1755 8.62725 17.097C8.62027 17.0185 8.54993 16.9603 8.47016 16.9671L8.46443 16.9676C8.38465 16.9743 8.32562 17.0435 8.33259 17.122C8.33957 17.2006 8.4099 17.2587 8.48968 17.252L8.49541 17.2515Z" fill="#D1BFC8"/>
<path d="M4.20497 7.75486C4.21195 7.83337 4.15294 7.90253 4.07317 7.9093L4.06744 7.90978C3.98763 7.91655 3.91733 7.85839 3.91035 7.77984C3.90337 7.70133 3.96238 7.63217 4.04216 7.6254L4.04789 7.62493C4.12766 7.61815 4.198 7.67631 4.20497 7.75486Z" fill="#D1BFC8"/>
<path d="M9.13542 6.28284C9.2152 6.27607 9.27424 6.20691 9.26726 6.1284C9.26028 6.04985 9.18995 5.99169 9.11017 5.99846L9.10444 5.99893C9.02467 6.00571 8.96563 6.07487 8.97261 6.15338C8.97958 6.23193 9.04992 6.29009 9.12969 6.28331L9.13542 6.28284Z" fill="#D1BFC8"/>
<path d="M18.3009 9.79435C18.3157 9.96172 18.1899 10.1091 18.0199 10.1235C17.8499 10.138 17.7 10.014 17.6851 9.84659L17.6838 9.83203C17.669 9.66467 17.7947 9.51728 17.9648 9.50285C18.1348 9.48842 18.2847 9.61243 18.2996 9.7798L18.3009 9.79435Z" fill="#D1BFC8"/>
<path d="M14.0672 16.2107C14.0741 16.2892 14.0151 16.3583 13.9353 16.3651L13.9296 16.3656C13.8498 16.3724 13.7795 16.3142 13.7725 16.2357C13.7656 16.1571 13.8246 16.088 13.9043 16.0812L13.9101 16.0807C13.9898 16.074 14.0602 16.1322 14.0672 16.2107Z" fill="#D1BFC8"/>
<path d="M8.62725 15.8956C8.63422 15.9742 8.57518 16.0433 8.49541 16.0501L8.48968 16.0506C8.4099 16.0573 8.33957 15.9991 8.33259 15.9206C8.32562 15.8421 8.38462 15.7729 8.46443 15.7662L8.47016 15.7657C8.54993 15.7589 8.62027 15.8171 8.62725 15.8956Z" fill="#D1BFC8"/>
<path d="M7.85539 14.1597C7.93517 14.1529 7.99418 14.0838 7.9872 14.0052C7.98022 13.9267 7.90989 13.8685 7.83011 13.8753L7.82438 13.8758C7.74461 13.8825 7.6856 13.9517 7.69258 14.0302C7.69955 14.1088 7.76986 14.167 7.84966 14.1602L7.85539 14.1597Z" fill="#D1BFC8"/>
<path d="M6.70717 16.8409C6.71415 16.9195 6.65514 16.9886 6.57536 16.9954L6.56964 16.9959C6.48983 17.0026 6.41952 16.9445 6.41255 16.8659C6.40557 16.7874 6.46458 16.7182 6.54436 16.7115L6.55008 16.711C6.62986 16.7042 6.7002 16.7624 6.70717 16.8409Z" fill="#D1BFC8"/>
<path d="M14.9239 6.96254C14.9715 6.88951 14.9495 6.793 14.8749 6.74697C14.8003 6.70097 14.7012 6.72287 14.6537 6.7959L14.3117 7.32099C14.2642 7.394 14.2861 7.49053 14.3608 7.53653C14.4354 7.58256 14.5344 7.56067 14.582 7.48763L14.9239 6.96254Z" fill="#D1BFC8"/>
<path d="M5.79558 10.1386C5.87744 10.1061 5.97101 10.1448 6.00461 10.2251L6.24486 10.7997C6.27846 10.88 6.23933 10.9714 6.15747 11.0039C6.07565 11.0364 5.98208 10.9976 5.94848 10.9173L5.70819 10.3428C5.67462 10.2625 5.71376 10.1711 5.79558 10.1386Z" fill="#D1BFC8"/>
<path d="M8.83373 7.88424C8.87744 7.80888 8.85049 7.7135 8.77357 7.67125C8.69664 7.629 8.59881 7.65585 8.5551 7.73124L8.24128 8.27234C8.19756 8.34771 8.22451 8.44305 8.30144 8.4853C8.3784 8.52755 8.47619 8.5007 8.5199 8.42534L8.83373 7.88424Z" fill="#D1BFC8"/>
<path d="M4.62445 8.92524C4.70016 8.96953 4.72442 9.06554 4.67863 9.13967L4.3496 9.67236C4.30378 9.74649 4.20528 9.77066 4.12957 9.72639C4.05386 9.68209 4.0296 9.58609 4.07539 9.51196L4.40442 8.97927C4.45021 8.90513 4.54871 8.88094 4.62445 8.92524Z" fill="#D1BFC8"/>
<path d="M15.0939 18.2002C15.0939 18.0281 14.9523 17.8887 14.7776 17.8888H14.7704C14.5956 17.8889 14.4539 18.0284 14.4539 18.2004C14.4538 18.3725 14.5954 18.5119 14.7701 18.5118H14.7773C14.9521 18.5117 15.0938 18.3722 15.0939 18.2002Z" fill="#D1BFC8"/>
<path d="M18.8174 11.9347C18.8892 11.7775 19.0784 11.7067 19.2387 11.776C19.3989 11.8453 19.4716 12.0294 19.3998 12.1866C19.3279 12.3438 19.1387 12.4147 18.9785 12.3454C18.8182 12.2761 18.7456 12.092 18.8174 11.9347Z" fill="#D1BFC8"/>
<path d="M6.78331 12.2861C6.9211 12.1923 6.95451 12.0072 6.85793 11.8726L6.84126 11.8494C6.74468 11.7148 6.5547 11.6817 6.41694 11.7755C6.27915 11.8692 6.24574 12.0543 6.34232 12.1889L6.35899 12.2121C6.45556 12.3467 6.64555 12.3798 6.78331 12.2861Z" fill="#D1BFC8"/>
<path d="M12.5419 6.05212C12.7166 6.05206 12.8582 6.19148 12.8581 6.36351C12.8581 6.53557 12.7164 6.67508 12.5416 6.67514H12.5344C12.3597 6.6752 12.2181 6.53579 12.2181 6.36373C12.2182 6.1917 12.3599 6.05219 12.5347 6.05212H12.5419Z" fill="#D1BFC8"/>
<path d="M5.49812 6.3661C5.49818 6.19404 5.35658 6.05462 5.18187 6.05469H5.17463C4.99991 6.05475 4.85822 6.19429 4.85815 6.36632C4.85809 6.53838 4.99969 6.6778 5.17441 6.67774H5.18164C5.35636 6.67767 5.49809 6.53816 5.49812 6.3661Z" fill="#D1BFC8"/>
<path d="M16.5365 7.93758C16.6541 8.06594 16.6426 8.26273 16.5108 8.37713L16.4705 8.4121C16.3387 8.5265 16.1366 8.51519 16.019 8.38683C15.9015 8.25844 15.913 8.06165 16.0448 7.94725L16.085 7.91228C16.2168 7.79788 16.4189 7.80922 16.5365 7.93758Z" fill="#D1BFC8"/>
</svg>
