<svg width="40" height="62" viewBox="0 0 40 62" fill="none" xmlns="http://www.w3.org/2000/svg">
<path d="M2.72673 26.8445H36.6519L32.9597 59.5017L32.9597 59.5018C32.9013 60.0187 32.4768 60.3857 31.999 60.3857H7.37958C6.90181 60.3857 6.47734 60.0187 6.4189 59.5017L2.72673 26.8445Z" fill="#C1EFE7" stroke="#1CBABA" stroke-width="2"/>
<path d="M0.5 21.7166C0.5 20.8803 1.16465 20.2166 1.96721 20.2166H37.4113C38.2139 20.2166 38.8786 20.8803 38.8786 21.7166V24.5273H0.5V21.7166Z" fill="#1CBABA" stroke="#1CBABA"/>
<path d="M3.31287 15.5889C3.31287 14.7526 3.97752 14.0889 4.78008 14.0889H34.1969C34.9994 14.0889 35.6641 14.7526 35.6641 15.5889V18.3996H3.31287V15.5889Z" fill="#1CBABA" stroke="#1CBABA"/>
<path d="M12.4564 1.33325C12.4564 1.33325 14.4655 1.66007 14.4655 4.05671C14.4655 6.45336 12.4564 6.45336 12.4564 8.52318C12.4564 10.5931 14.4655 12.7718 14.4655 12.7718" stroke="#1CBABA" stroke-linecap="round" stroke-linejoin="round"/>
<path d="M18.0822 1.33325C18.0822 1.33325 20.0913 1.66007 20.0913 4.05671C20.0913 6.45336 18.0822 6.45336 18.0822 8.52318C18.0822 10.5931 20.0913 12.7718 20.0913 12.7718" stroke="#1CBABA" stroke-linecap="round" stroke-linejoin="round"/>
<path d="M23.7074 1.33325C23.7074 1.33325 25.7165 1.66007 25.7165 4.05671C25.7165 6.45336 23.7074 6.45336 23.7074 8.52318C23.7074 10.5931 25.7165 12.7718 25.7165 12.7718" stroke="#1CBABA" stroke-linecap="round" stroke-linejoin="round"/>
</svg>
