<svg width="43" height="43" viewBox="0 0 43 43" fill="none" xmlns="http://www.w3.org/2000/svg">
<circle cx="21.5" cy="21.5" r="21.5" fill="#1CBABA"/>
<path d="M23.22 26.48H24.28C24.5733 26.48 24.8067 26.5333 24.98 26.64C25.1533 26.7467 25.24 26.9533 25.24 27.26C25.24 27.4733 25.18 27.6533 25.06 27.8C24.9533 27.9333 24.8133 28 24.64 28H20.86C20.7 28 20.5333 27.9933 20.36 27.98C20.2 27.9667 20.0533 27.94 19.92 27.9C19.8 27.8467 19.6933 27.7733 19.6 27.68C19.52 27.5867 19.48 27.4533 19.48 27.28C19.48 27.0267 19.58 26.8467 19.78 26.74C19.98 26.62 20.2533 26.5467 20.6 26.52C20.8133 26.4933 20.9933 26.4533 21.14 26.4C21.3 26.3467 21.3867 26.2467 21.4 26.1C21.4133 25.9533 21.42 25.7667 21.42 25.54C21.4333 25.3133 21.44 25.0867 21.44 24.86C21.4533 24.62 21.46 24.4 21.46 24.2C21.4733 24 21.48 23.8467 21.48 23.74C21.48 23.2867 21.4733 22.8933 21.46 22.56C21.4467 22.2133 21.4267 21.82 21.4 21.38C21.3867 21.1933 21.3533 21.04 21.3 20.92C21.26 20.7867 21.1667 20.72 21.02 20.72C20.98 20.72 20.8933 20.7267 20.76 20.74C20.6267 20.74 20.4867 20.74 20.34 20.74C20.1933 20.74 20.0533 20.7467 19.92 20.76C19.7867 20.76 19.7 20.76 19.66 20.76C19.4333 20.76 19.2733 20.7 19.18 20.58C19.0867 20.4467 19.04 20.2867 19.04 20.1C19.04 19.8333 19.1533 19.6533 19.38 19.56C19.62 19.4667 20.04 19.4 20.64 19.36C21.0267 19.3333 21.4067 19.3133 21.78 19.3C22.1533 19.2867 22.4533 19.28 22.68 19.28C22.88 19.28 23.02 19.3467 23.1 19.48C23.18 19.6 23.22 19.7667 23.22 19.98V26.48ZM20.84 16.4C20.84 16.28 20.8667 16.14 20.92 15.98C20.9733 15.82 21.0533 15.6667 21.16 15.52C21.2667 15.3733 21.4067 15.2533 21.58 15.16C21.7533 15.0533 21.96 15 22.2 15C22.5333 15 22.82 15.12 23.06 15.36C23.3 15.5867 23.42 15.9067 23.42 16.32C23.42 16.6 23.3733 16.8333 23.28 17.02C23.2 17.2067 23.0867 17.36 22.94 17.48C22.8067 17.6 22.66 17.6867 22.5 17.74C22.34 17.7933 22.1933 17.82 22.06 17.82C21.7133 17.82 21.42 17.6867 21.18 17.42C20.9533 17.14 20.84 16.8 20.84 16.4Z" fill="white"/>
</svg>
