<svg width="87" height="44" viewBox="0 0 87 44" fill="none" xmlns="http://www.w3.org/2000/svg">
<path d="M3.5615 28.8138L12.3447 14.1598L30.3669 20.605L28.0205 37.5184C27.6282 40.3461 24.7359 42.0985 22.0478 41.1372L5.90595 35.3644C3.23363 34.4087 2.10245 31.2481 3.5615 28.8138ZM19.9278 21.0439C21.1008 21.4633 22.2313 21.7082 23.119 21.7556C23.5596 21.7791 23.9699 21.7558 24.3049 21.6627C24.624 21.5739 24.995 21.385 25.1379 20.9854C25.2808 20.5859 25.1138 20.2045 24.9233 19.9335C24.7233 19.6491 24.4209 19.3708 24.0653 19.1096C23.3488 18.5833 22.3194 18.0557 21.1465 17.6363C19.9736 17.2168 18.8431 16.9719 17.9553 16.9245C17.5148 16.901 17.1044 16.9244 16.7695 17.0175C16.4503 17.1062 16.0793 17.2952 15.9364 17.6947C15.7936 18.0943 15.9606 18.4756 16.1511 18.7466C16.351 19.0311 16.6535 19.3093 17.009 19.5705C17.7255 20.0969 18.7549 20.6244 19.9278 21.0439Z" fill="white" stroke="#C1EFE7"/>
<g clip-path="url(#clip0_37_384)">
<path fill-rule="evenodd" clip-rule="evenodd" d="M25.3327 30.0551C25.9995 28.1905 24.9557 26.1124 23.0013 25.4135C21.0469 24.7146 18.922 25.6594 18.2552 27.524C17.5884 29.3885 18.6322 31.4666 20.5866 32.1655C22.541 32.8645 24.6659 31.9196 25.3327 30.0551ZM23.04 29.2351C23.2747 28.5786 22.9072 27.8469 22.219 27.6008C21.5309 27.3547 20.7827 27.6874 20.5479 28.3439C20.3131 29.0004 20.6806 29.7321 21.3688 29.9782C22.057 30.2243 22.8052 29.8916 23.04 29.2351Z" fill="#D1BFC8"/>
<path d="M18.3595 28.4907L18.3602 28.487L18.3604 28.4833C18.382 27.9958 18.5834 27.0455 19.1062 26.3319C19.367 25.976 19.7058 25.6815 20.1395 25.5304C20.5724 25.3796 21.1058 25.3697 21.7608 25.5926C21.8168 25.6116 21.9038 25.6327 22.0141 25.6594C22.3688 25.7452 22.965 25.8893 23.5509 26.2147C24.3114 26.6371 25.0373 27.3591 25.1284 28.6419C25.2482 30.3301 23.5963 31.6082 21.6975 31.6779C20.7677 31.6394 19.8663 31.1939 19.2301 30.5793C18.5923 29.9632 18.2303 29.1868 18.3595 28.4907ZM20.5816 28.7865C20.5733 29.4354 21.08 29.9885 21.7211 30.0146C22.3622 30.0407 22.8827 29.5295 22.891 28.8805C22.8951 28.5592 22.801 28.2702 22.6073 28.0569C22.4129 27.8429 22.1238 27.7113 21.7509 27.6961C21.378 27.6809 21.0859 27.7888 20.8862 27.9868C20.6872 28.1841 20.5857 28.4652 20.5816 28.7865Z" fill="white" stroke="#D1BFC8" stroke-width="0.5"/>
<path d="M21.1862 25.963C21.1792 25.99 21.1507 26.0058 21.1225 25.9982L21.1205 25.9977C21.0923 25.9901 21.0751 25.9622 21.082 25.9352C21.089 25.9082 21.1175 25.8924 21.1457 25.9L21.1477 25.9005C21.1759 25.908 21.1931 25.936 21.1862 25.963Z" fill="#D1BFC8"/>
<path d="M20.5631 27.6186C20.6232 27.6347 20.6839 27.6011 20.6987 27.5436L20.7 27.5386C20.7148 27.4811 20.6781 27.4214 20.618 27.4053C20.5579 27.3893 20.4971 27.4228 20.4823 27.4804L20.481 27.4854C20.4662 27.5429 20.503 27.6026 20.5631 27.6186Z" fill="#D1BFC8"/>
<path d="M23.0852 31.0478C23.1453 31.0639 23.206 31.0303 23.2208 30.9727L23.2221 30.9677C23.2369 30.9102 23.2002 30.8506 23.1401 30.8345C23.08 30.8184 23.0192 30.852 23.0044 30.9095L23.0031 30.9145C22.9883 30.972 23.0251 31.0317 23.0852 31.0478Z" fill="#D1BFC8"/>
<path d="M19.0874 27.7305C19.1475 27.7465 19.2082 27.7129 19.223 27.6554L19.2243 27.6504C19.2391 27.5929 19.2024 27.5332 19.1423 27.5172C19.0822 27.5011 19.0214 27.5347 19.0066 27.5922L19.0053 27.5972C18.9905 27.6547 19.0273 27.7144 19.0874 27.7305Z" fill="#D1BFC8"/>
<path d="M20.7191 26.5304C20.7043 26.5879 20.6436 26.6215 20.5835 26.6055C20.5233 26.5894 20.4866 26.5297 20.5014 26.4722L20.5027 26.4672C20.5175 26.4097 20.5783 26.3761 20.6384 26.3922C20.6985 26.4082 20.7352 26.4679 20.7204 26.5254L20.7191 26.5304Z" fill="#D1BFC8"/>
<path d="M23.3711 29.9621C23.4312 29.9782 23.4919 29.9446 23.5067 29.8871L23.508 29.8821C23.5228 29.8245 23.4861 29.7649 23.426 29.7488C23.3659 29.7327 23.3051 29.7663 23.2903 29.8238L23.289 29.8288C23.2742 29.8863 23.3109 29.946 23.3711 29.9621Z" fill="#D1BFC8"/>
<path d="M18.9064 28.5398C18.8916 28.5973 18.8308 28.6309 18.7707 28.6149C18.7106 28.5988 18.6739 28.5391 18.6887 28.4816L18.69 28.4766C18.7048 28.4191 18.7655 28.3855 18.8256 28.4015C18.8858 28.4176 18.9225 28.4773 18.9077 28.5348L18.9064 28.5398Z" fill="#D1BFC8"/>
<path d="M19.8413 27.0099C19.9014 27.026 19.9621 26.9924 19.9769 26.9349L19.9782 26.9299C19.993 26.8724 19.9563 26.8127 19.8962 26.7966C19.8361 26.7805 19.7753 26.8141 19.7605 26.8717L19.7592 26.8767C19.7444 26.9342 19.7812 26.9939 19.8413 27.0099Z" fill="#D1BFC8"/>
<path d="M22.8246 30.4073C22.8098 30.4648 22.749 30.4984 22.6889 30.4823C22.6288 30.4662 22.5921 30.4065 22.6069 30.349L22.6082 30.344C22.623 30.2865 22.6837 30.2529 22.7439 30.269C22.804 30.2851 22.8407 30.3447 22.8259 30.4023L22.8246 30.4073Z" fill="#D1BFC8"/>
<path d="M19.4925 29.2235C19.5526 29.2396 19.6134 29.206 19.6282 29.1485L19.6295 29.1435C19.6443 29.0859 19.6076 29.0263 19.5474 29.0102C19.4873 28.9941 19.4266 29.0277 19.4118 29.0852L19.4105 29.0902C19.3957 29.1477 19.4324 29.2074 19.4925 29.2235Z" fill="#D1BFC8"/>
<path d="M20.3459 25.8865C20.3389 25.9135 20.3104 25.9292 20.2822 25.9217L20.2802 25.9212C20.252 25.9136 20.2348 25.8856 20.2417 25.8586C20.2486 25.8316 20.2771 25.8159 20.3054 25.8234L20.3074 25.824C20.3356 25.8315 20.3528 25.8595 20.3459 25.8865Z" fill="#D1BFC8"/>
<path d="M21.9281 27.211C21.9563 27.2186 21.9848 27.2028 21.9917 27.1758C21.9987 27.1488 21.9815 27.1208 21.9532 27.1133L21.9512 27.1127C21.923 27.1052 21.8945 27.1209 21.8876 27.1479C21.8806 27.1749 21.8978 27.2029 21.9261 27.2105L21.9281 27.211Z" fill="#D1BFC8"/>
<path d="M20.8041 30.4925C20.7972 30.5194 20.7687 30.5352 20.7405 30.5277L20.7384 30.5271C20.7102 30.5196 20.693 30.4916 20.7 30.4646C20.7069 30.4376 20.7354 30.4218 20.7636 30.4294L20.7656 30.4299C20.7938 30.4375 20.8111 30.4655 20.8041 30.4925Z" fill="#D1BFC8"/>
<path d="M19.8799 30.1027C19.9081 30.1102 19.9366 30.0945 19.9435 30.0675C19.9505 30.0405 19.9332 30.0125 19.905 30.0049L19.903 30.0044C19.8748 29.9968 19.8463 30.0126 19.8394 30.0396C19.8324 30.0666 19.8496 30.0946 19.8778 30.1021L19.8799 30.1027Z" fill="#D1BFC8"/>
<path d="M19.5365 26.4156C19.5296 26.4426 19.5011 26.4584 19.4729 26.4508L19.4709 26.4503C19.4426 26.4427 19.4254 26.4147 19.4324 26.3877C19.4393 26.3608 19.4678 26.345 19.496 26.3525L19.498 26.3531C19.5262 26.3606 19.5435 26.3886 19.5365 26.4156Z" fill="#D1BFC8"/>
<path d="M21.405 26.5314C21.4332 26.5389 21.4617 26.5232 21.4687 26.4962C21.4756 26.4692 21.4584 26.4412 21.4302 26.4336L21.4282 26.4331C21.4 26.4256 21.3715 26.4413 21.3645 26.4683C21.3576 26.4953 21.3748 26.5233 21.403 26.5308L21.405 26.5314Z" fill="#D1BFC8"/>
<path d="M24.1348 28.8256C24.12 28.8831 24.0592 28.9167 23.9991 28.9006C23.939 28.8845 23.9023 28.8249 23.9171 28.7674L23.9184 28.7623C23.9332 28.7048 23.9939 28.6712 24.054 28.6873C24.1142 28.7034 24.1509 28.7631 24.1361 28.8206L24.1348 28.8256Z" fill="#D1BFC8"/>
<path d="M21.9173 30.4407C21.9103 30.4677 21.8818 30.4834 21.8536 30.4759L21.8516 30.4754C21.8234 30.4678 21.8062 30.4398 21.8131 30.4128C21.8201 30.3858 21.8486 30.3701 21.8768 30.3776L21.8788 30.3782C21.907 30.3857 21.9242 30.4137 21.9173 30.4407Z" fill="#D1BFC8"/>
<path d="M20.0865 29.6676C20.0795 29.6946 20.051 29.7104 20.0228 29.7028L20.0208 29.7023C19.9926 29.6947 19.9754 29.6667 19.9823 29.6398C19.9893 29.6128 20.0177 29.597 20.046 29.6046L20.048 29.6051C20.0762 29.6126 20.0934 29.6406 20.0865 29.6676Z" fill="#D1BFC8"/>
<path d="M20.0279 28.9952C20.0561 29.0028 20.0846 28.987 20.0916 28.96C20.0985 28.9331 20.0813 28.9051 20.0531 28.8975L20.0511 28.897C20.0229 28.8894 19.9944 28.9052 19.9874 28.9322C19.9805 28.9592 19.9977 28.9872 20.0259 28.9947L20.0279 28.9952Z" fill="#D1BFC8"/>
<path d="M19.3146 29.7465C19.3077 29.7735 19.2792 29.7892 19.251 29.7817L19.2489 29.7811C19.2207 29.7736 19.2035 29.7456 19.2104 29.7186C19.2174 29.6916 19.2459 29.6759 19.2741 29.6834L19.2761 29.6839C19.3043 29.6915 19.3216 29.7195 19.3146 29.7465Z" fill="#D1BFC8"/>
<path d="M23.312 27.4685C23.3371 27.45 23.341 27.4152 23.3209 27.3907C23.3007 27.3663 23.2641 27.3614 23.2391 27.3799L23.0592 27.5126C23.0341 27.531 23.0302 27.5659 23.0503 27.5903C23.0705 27.6148 23.1071 27.6197 23.1321 27.6012L23.312 27.4685Z" fill="#D1BFC8"/>
<path d="M19.7991 27.4043C19.8311 27.4035 19.8586 27.4279 19.8606 27.4588L19.8748 27.6795C19.8767 27.7103 19.8524 27.7359 19.8204 27.7367C19.7885 27.7374 19.7609 27.713 19.759 27.6822L19.7448 27.4615C19.7428 27.4307 19.7672 27.405 19.7991 27.4043Z" fill="#D1BFC8"/>
<path d="M21.1108 27.0272C21.1348 27.0075 21.1369 26.9724 21.1155 26.9489C21.0941 26.9254 21.0573 26.9223 21.0333 26.9421L20.8611 27.0836C20.8372 27.1033 20.8351 27.1383 20.8565 27.1618C20.8779 27.1853 20.9146 27.1884 20.9386 27.1687L21.1108 27.0272Z" fill="#D1BFC8"/>
<path d="M19.5413 26.8566C19.562 26.8806 19.5589 26.9155 19.5344 26.9346L19.358 27.0714C19.3334 27.0905 19.2967 27.0864 19.276 27.0624C19.2553 27.0384 19.2584 27.0034 19.2829 26.9844L19.4593 26.8475C19.4838 26.8285 19.5205 26.8325 19.5413 26.8566Z" fill="#D1BFC8"/>
<path d="M22.0331 31.2288C22.0536 31.1716 22.0215 31.1078 21.9615 31.0863L21.959 31.0854C21.899 31.064 21.8338 31.093 21.8133 31.1503C21.7928 31.2075 21.8248 31.2713 21.8848 31.2927L21.8873 31.2936C21.9473 31.3151 22.0126 31.286 22.0331 31.2288Z" fill="#D1BFC8"/>
<path d="M24.0574 29.6012C24.1008 29.5577 24.1742 29.5573 24.221 29.6001C24.2678 29.6428 24.2708 29.713 24.2274 29.7565C24.1841 29.8 24.1107 29.8003 24.0639 29.7576C24.0171 29.7148 24.014 29.6446 24.0574 29.6012Z" fill="#D1BFC8"/>
<path d="M19.8827 28.2401C19.9412 28.2258 19.9747 28.1683 19.9576 28.1117L19.9546 28.1019C19.9374 28.0453 19.8761 28.0109 19.8177 28.0252C19.7592 28.0395 19.7257 28.097 19.7428 28.1536L19.7458 28.1634C19.763 28.22 19.8243 28.2544 19.8827 28.2401Z" fill="#D1BFC8"/>
<path d="M22.6023 26.8729C22.6623 26.8944 22.6943 26.9582 22.6738 27.0154C22.6533 27.0727 22.5881 27.1017 22.528 27.0802L22.5256 27.0794C22.4655 27.0579 22.4335 26.9941 22.454 26.9369C22.4745 26.8796 22.5398 26.8506 22.5998 26.8721L22.6023 26.8729Z" fill="#D1BFC8"/>
<path d="M20.146 26.1123C20.1665 26.055 20.1344 25.9912 20.0744 25.9698L20.0719 25.9689C20.0119 25.9475 19.9467 25.9765 19.9262 26.0338C19.9057 26.091 19.9377 26.1548 19.9977 26.1762L20.0002 26.1771C20.0602 26.1986 20.1255 26.1695 20.146 26.1123Z" fill="#D1BFC8"/>
<path d="M23.7498 27.9909C23.7749 28.048 23.7476 28.1121 23.6887 28.134L23.6707 28.1407C23.6118 28.1626 23.5437 28.134 23.5186 28.0768C23.4936 28.0197 23.5209 27.9556 23.5798 27.9337L23.5978 27.927C23.6567 27.9051 23.7247 27.9337 23.7498 27.9909Z" fill="#D1BFC8"/>
</g>
<g clip-path="url(#clip1_37_384)">
<path d="M15.6871 34.0012C15.6674 34.4704 16.019 34.948 16.5702 35.1451C17.1213 35.3422 17.696 35.1959 17.9783 34.8206L15.6871 34.0012Z" fill="#D1BFC8"/>
<path d="M18.2976 34.9348C18.2779 35.404 18.6295 35.8816 19.1806 36.0787C19.7318 36.2758 20.3065 36.1295 20.5888 35.7542L18.2976 34.9348Z" fill="#D1BFC8"/>
<path d="M20.7449 35.8101C20.7252 36.2792 21.0767 36.7568 21.6279 36.954C22.1791 37.1511 22.7538 37.0047 23.0361 36.6295L20.7449 35.8101Z" fill="#D1BFC8"/>
<path d="M24.063 35.822C24.1354 36.0377 23.9164 36.1967 23.7022 36.1201L15.5437 33.2024C15.3295 33.1258 15.262 32.8629 15.4615 32.7535C16.3851 32.2472 18.269 32.5746 20.2048 33.0752C22.1494 33.578 23.7102 34.7709 24.063 35.822Z" fill="#D1BFC8"/>
<path d="M14.6147 35.4906C14.4693 35.2937 14.6702 35.1097 14.9006 35.1921L22.9635 38.0756C23.194 38.158 23.2322 38.4272 22.9947 38.4865C22.0784 38.7155 20.2821 38.3805 18.5184 37.7497C16.7558 37.1194 15.1727 36.2462 14.6147 35.4906Z" fill="#D1BFC8"/>
<path d="M17.9303 33.2975C17.8469 33.3366 17.8109 33.4359 17.85 33.5193C17.8891 33.6026 17.9884 33.6385 18.0718 33.5995L17.9303 33.2975ZM19.5942 33.3673C19.6809 33.3983 19.7764 33.3531 19.8074 33.2664C19.8384 33.1797 19.7932 33.0843 19.7065 33.0533L19.5942 33.3673ZM18.001 33.4485C18.0718 33.5995 18.0717 33.5995 18.0717 33.5995C18.0717 33.5995 18.0717 33.5995 18.0717 33.5995C18.0717 33.5995 18.0717 33.5995 18.0717 33.5995C18.0717 33.5995 18.0718 33.5994 18.072 33.5994C18.0723 33.5992 18.0728 33.599 18.0736 33.5986C18.0751 33.5979 18.0776 33.5968 18.081 33.5953C18.0877 33.5922 18.098 33.5876 18.1115 33.5818C18.1385 33.5702 18.1782 33.5535 18.2281 33.5342C18.3281 33.4953 18.4676 33.446 18.626 33.4037C18.9518 33.3167 19.3214 33.2697 19.5942 33.3673L19.7065 33.0533C19.3322 32.9194 18.8771 32.9915 18.54 33.0815C18.3669 33.1277 18.2155 33.1813 18.1073 33.2233C18.0532 33.2443 18.0095 33.2626 17.9792 33.2757C17.964 33.2823 17.9521 33.2876 17.9438 33.2913C17.9397 33.2932 17.9365 33.2946 17.9342 33.2957C17.9331 33.2962 17.9322 33.2966 17.9315 33.2969C17.9312 33.2971 17.9309 33.2972 17.9307 33.2973C17.9306 33.2974 17.9305 33.2974 17.9304 33.2974C17.9304 33.2975 17.9303 33.2975 17.9303 33.2975C17.9303 33.2975 17.9303 33.2975 18.001 33.4485Z" fill="white"/>
<path d="M19.1023 33.606C19.0181 33.6434 18.9802 33.7419 19.0175 33.8261C19.0549 33.9102 19.1534 33.9482 19.2375 33.9108L19.1023 33.606ZM20.7645 33.7101C20.8505 33.7428 20.9469 33.6997 20.9797 33.6136C21.0124 33.5276 20.9693 33.4312 20.8832 33.3984L20.7645 33.7101ZM19.1699 33.7584C19.2375 33.9108 19.2375 33.9109 19.2375 33.9109C19.2375 33.9109 19.2375 33.9109 19.2374 33.9109C19.2374 33.9109 19.2374 33.9109 19.2375 33.9109C19.2375 33.9109 19.2376 33.9108 19.2377 33.9108C19.238 33.9106 19.2386 33.9104 19.2394 33.91C19.241 33.9094 19.2435 33.9083 19.2469 33.9068C19.2537 33.9039 19.264 33.8996 19.2776 33.894C19.3048 33.8829 19.3449 33.8671 19.3952 33.8488C19.4959 33.812 19.6365 33.7655 19.7957 33.7265C20.1232 33.6463 20.4937 33.6069 20.7645 33.7101L20.8832 33.3984C20.5117 33.2569 20.0552 33.3196 19.7163 33.4026C19.5424 33.4453 19.3899 33.4957 19.2809 33.5355C19.2263 33.5554 19.1823 33.5728 19.1516 33.5852C19.1363 33.5915 19.1243 33.5965 19.116 33.6001C19.1118 33.6019 19.1086 33.6033 19.1063 33.6043C19.1051 33.6048 19.1042 33.6052 19.1035 33.6055C19.1032 33.6056 19.1029 33.6057 19.1027 33.6058C19.1026 33.6059 19.1025 33.6059 19.1025 33.606C19.1024 33.606 19.1024 33.606 19.1024 33.606C19.1023 33.606 19.1023 33.606 19.1699 33.7584Z" fill="white"/>
<path d="M20.1331 34.078C20.0494 34.1164 20.0127 34.2154 20.0511 34.2991C20.0895 34.3828 20.1885 34.4195 20.2722 34.3811L20.1331 34.078ZM21.7965 34.1612C21.8829 34.1929 21.9787 34.1486 22.0104 34.0621C22.0421 33.9757 21.9978 33.8799 21.9113 33.8482L21.7965 34.1612ZM20.2027 34.2296C20.2722 34.3811 20.2721 34.3811 20.2721 34.3811C20.2721 34.3811 20.2721 34.3811 20.2721 34.3811C20.2721 34.3812 20.2721 34.3812 20.2721 34.3811C20.2721 34.3811 20.2722 34.3811 20.2724 34.381C20.2727 34.3809 20.2732 34.3806 20.274 34.3803C20.2756 34.3796 20.2781 34.3785 20.2814 34.377C20.2882 34.374 20.2985 34.3695 20.312 34.3638C20.3391 34.3523 20.379 34.336 20.429 34.3171C20.5293 34.279 20.6693 34.2308 20.828 34.1898C21.1545 34.1055 21.5244 34.0614 21.7965 34.1612L21.9113 33.8482C21.5381 33.7113 21.0824 33.7797 20.7446 33.8669C20.5712 33.9117 20.4193 33.9641 20.3108 34.0052C20.2565 34.0258 20.2127 34.0437 20.1822 34.0566C20.167 34.0631 20.1551 34.0683 20.1468 34.0719C20.1426 34.0737 20.1394 34.0752 20.1371 34.0762C20.1359 34.0767 20.135 34.0771 20.1344 34.0774C20.134 34.0776 20.1338 34.0777 20.1336 34.0778C20.1335 34.0779 20.1334 34.0779 20.1333 34.0779C20.1333 34.078 20.1332 34.078 20.1332 34.078C20.1332 34.078 20.1331 34.078 20.2027 34.2296Z" fill="white"/>
<path d="M14.6489 34.422C14.5693 34.3756 14.4672 34.4025 14.4209 34.4821C14.3746 34.5617 14.4015 34.6638 14.4811 34.7101L14.6489 34.422ZM17.3734 35.8465L17.3197 36.0043L17.3734 35.8465ZM22.268 37.5969L22.2275 37.7586L22.268 37.5969ZM23.5655 37.956C23.6572 37.9635 23.7378 37.8953 23.7454 37.8035C23.753 37.7118 23.6848 37.6312 23.593 37.6236L23.5655 37.956ZM14.4811 34.7101C15.5322 35.3224 16.1681 35.6123 17.3197 36.0043L17.4272 35.6886C16.2966 35.3038 15.6809 35.0231 14.6489 34.422L14.4811 34.7101ZM17.3197 36.0043C17.8151 36.1729 18.225 36.2485 18.6203 36.323C19.0155 36.3975 19.3965 36.471 19.8521 36.6339L19.9644 36.3199C19.4819 36.1474 19.0783 36.07 18.6821 35.9953C18.2859 35.9206 17.8975 35.8487 17.4272 35.6886L17.3197 36.0043ZM19.8521 36.6339C20.3029 36.7951 20.6304 37.0034 20.9839 37.2131C21.3367 37.4224 21.7089 37.6286 22.2275 37.7586L22.3086 37.4352C21.8378 37.3171 21.4991 37.131 21.154 36.9263C20.8094 36.7219 20.4518 36.4942 19.9644 36.3199L19.8521 36.6339ZM22.2275 37.7586C22.489 37.8242 22.8253 37.8734 23.0916 37.906C23.2257 37.9225 23.3439 37.9349 23.4286 37.9433C23.471 37.9475 23.505 37.9506 23.5286 37.9527C23.5403 37.9538 23.5495 37.9546 23.5557 37.9551C23.5588 37.9554 23.5612 37.9556 23.5629 37.9557C23.5637 37.9558 23.5643 37.9559 23.5647 37.9559C23.565 37.9559 23.5651 37.9559 23.5653 37.9559C23.5653 37.9559 23.5654 37.9559 23.5654 37.9559C23.5654 37.9559 23.5654 37.9559 23.5654 37.9559C23.5655 37.9559 23.5655 37.956 23.5792 37.7898C23.593 37.6236 23.593 37.6236 23.593 37.6236C23.593 37.6236 23.593 37.6236 23.593 37.6236C23.593 37.6236 23.5929 37.6236 23.5929 37.6236C23.5928 37.6236 23.5927 37.6236 23.5925 37.6236C23.5922 37.6235 23.5916 37.6235 23.5909 37.6234C23.5895 37.6233 23.5873 37.6231 23.5843 37.6229C23.5785 37.6224 23.5697 37.6216 23.5584 37.6206C23.5357 37.6186 23.5026 37.6155 23.4613 37.6114C23.3786 37.6033 23.2631 37.5911 23.1322 37.5751C22.8684 37.5427 22.5491 37.4955 22.3086 37.4352L22.2275 37.7586Z" fill="#D1BFC8"/>
<path d="M15.2328 33.4707C15.2489 33.4256 15.2985 33.4022 15.3435 33.4183L23.746 36.4232C23.791 36.4393 23.8145 36.4889 23.7984 36.534C23.7823 36.579 23.7327 36.6025 23.6876 36.5864L15.2852 33.5814C15.2401 33.5653 15.2167 33.5157 15.2328 33.4707Z" fill="#D1BFC8"/>
<path d="M21.5895 36.9181L20.4183 35.3429L23.1785 36.33L21.5895 36.9181Z" stroke="#D1BFC8" stroke-width="0.3"/>
</g>
<g clip-path="url(#clip2_37_384)">
<path d="M9.56567 26.2831L14.9124 28.1952L12.0991 34.1208L7.98321 32.6489L9.56567 26.2831Z" fill="white" stroke="#D1BFC8"/>
<path d="M9.22419 24.7016C9.30297 24.4813 9.52238 24.3584 9.71427 24.4271L15.9745 26.6659C16.1663 26.7345 16.258 26.9687 16.1793 27.1889L15.9432 27.8491L8.98809 25.3618L9.22419 24.7016Z" fill="#D1BFC8"/>
<path d="M10.158 23.6573C10.2368 23.437 10.4562 23.3141 10.6481 23.3827L15.8437 25.2408C16.0356 25.3095 16.1273 25.5437 16.0486 25.7639L15.8125 26.4241L9.92193 24.3175L10.158 23.6573Z" fill="#D1BFC8"/>
<path d="M12.8779 21.4237C12.8779 21.4237 13.2095 21.6158 13.0386 22.0937C12.8676 22.5716 12.5128 22.4447 12.3652 22.8575C12.2176 23.2702 12.417 23.8316 12.417 23.8316" fill="#D1BFC8"/>
<path d="M12.8779 21.4237C12.8779 21.4237 13.2095 21.6158 13.0386 22.0937C12.8676 22.5716 12.5128 22.4447 12.3652 22.8575C12.2176 23.2702 12.417 23.8316 12.417 23.8316" stroke="#D1BFC8" stroke-width="0.5" stroke-linecap="round" stroke-linejoin="round"/>
<path d="M13.8716 21.7791C13.8716 21.7791 14.2031 21.9711 14.0322 22.449C13.8613 22.927 13.5064 22.8001 13.3588 23.2128C13.2112 23.6256 13.4107 24.1869 13.4107 24.1869" fill="#D1BFC8"/>
<path d="M13.8716 21.7791C13.8716 21.7791 14.2031 21.9711 14.0322 22.449C13.8613 22.927 13.5064 22.8001 13.3588 23.2128C13.2112 23.6256 13.4107 24.1869 13.4107 24.1869" stroke="#D1BFC8" stroke-width="0.5" stroke-linecap="round" stroke-linejoin="round"/>
<path d="M14.8651 22.1344C14.8651 22.1344 15.1967 22.3265 15.0257 22.8044C14.8548 23.2823 14.5 23.1554 14.3524 23.5682C14.2048 23.9809 14.4042 24.5423 14.4042 24.5423" fill="#D1BFC8"/>
<path d="M14.8651 22.1344C14.8651 22.1344 15.1967 22.3265 15.0257 22.8044C14.8548 23.2823 14.5 23.1554 14.3524 23.5682C14.2048 23.9809 14.4042 24.5423 14.4042 24.5423" stroke="#D1BFC8" stroke-width="0.5" stroke-linecap="round" stroke-linejoin="round"/>
</g>
<path d="M48.539 6.975H44.615V18H42.194V6.975H38.27V4.986H48.539V6.975ZM55.8523 13.086L54.2683 8.757C54.1903 8.565 54.1093 8.337 54.0253 8.073C53.9413 7.809 53.8573 7.524 53.7733 7.218C53.6953 7.524 53.6143 7.812 53.5303 8.082C53.4463 8.346 53.3653 8.577 53.2873 8.775L51.7123 13.086H55.8523ZM60.1273 18H58.2553C58.0453 18 57.8743 17.949 57.7423 17.847C57.6103 17.739 57.5113 17.607 57.4453 17.451L56.4733 14.796H51.0823L50.1103 17.451C50.0623 17.589 49.9693 17.715 49.8313 17.829C49.6933 17.943 49.5223 18 49.3183 18H47.4283L52.5493 4.986H55.0153L60.1273 18ZM63.8954 10.44H64.4624C64.6904 10.44 64.8794 10.41 65.0294 10.35C65.1794 10.284 65.3084 10.182 65.4164 10.044L69.0074 5.499C69.1574 5.307 69.3134 5.175 69.4754 5.103C69.6434 5.025 69.8534 4.986 70.1054 4.986H72.1934L67.8104 10.395C67.5524 10.725 67.2854 10.959 67.0094 11.097C67.2074 11.169 67.3844 11.271 67.5404 11.403C67.7024 11.529 67.8554 11.697 67.9994 11.907L72.5174 18H70.3844C70.0964 18 69.8804 17.961 69.7364 17.883C69.5984 17.799 69.4814 17.679 69.3854 17.523L65.7044 12.717C65.5904 12.555 65.4584 12.441 65.3084 12.375C65.1584 12.309 64.9424 12.276 64.6604 12.276H63.8954V18H61.4744V4.986H63.8954V10.44ZM76.2442 6.912V10.521H80.7982V12.384H76.2442V16.065H82.0222V18H73.8142V4.986H82.0222V6.912H76.2442Z" fill="white"/>
<path d="M42.325 34.086L40.741 29.757C40.663 29.565 40.582 29.337 40.498 29.073C40.414 28.809 40.33 28.524 40.246 28.218C40.168 28.524 40.087 28.812 40.003 29.082C39.919 29.346 39.838 29.577 39.76 29.775L38.185 34.086H42.325ZM46.6 39H44.728C44.518 39 44.347 38.949 44.215 38.847C44.083 38.739 43.984 38.607 43.918 38.451L42.946 35.796H37.555L36.583 38.451C36.535 38.589 36.442 38.715 36.304 38.829C36.166 38.943 35.995 39 35.791 39H33.901L39.022 25.986H41.488L46.6 39ZM64.4017 25.986L60.3607 39H58.1737L55.3297 30.108C55.2517 29.892 55.1797 29.628 55.1137 29.316C55.0777 29.466 55.0417 29.607 55.0057 29.739C54.9697 29.871 54.9307 29.994 54.8887 30.108L52.0177 39H49.8217L45.7897 25.986H47.8147C48.0247 25.986 48.1987 26.037 48.3367 26.139C48.4807 26.235 48.5767 26.367 48.6247 26.535L50.8387 34.32C50.8867 34.512 50.9317 34.722 50.9737 34.95C51.0217 35.172 51.0697 35.406 51.1177 35.652C51.1657 35.4 51.2167 35.163 51.2707 34.941C51.3307 34.719 51.3937 34.512 51.4597 34.32L54.0157 26.535C54.0637 26.397 54.1567 26.271 54.2947 26.157C54.4387 26.043 54.6127 25.986 54.8167 25.986H55.5277C55.7377 25.986 55.9087 26.037 56.0407 26.139C56.1727 26.241 56.2717 26.373 56.3377 26.535L58.8847 34.32C59.0107 34.692 59.1247 35.121 59.2267 35.607C59.3047 35.133 59.3917 34.704 59.4877 34.32L61.7017 26.535C61.7377 26.385 61.8277 26.256 61.9717 26.148C62.1217 26.04 62.2987 25.986 62.5027 25.986H64.4017ZM72.0145 34.086L70.4305 29.757C70.3525 29.565 70.2715 29.337 70.1875 29.073C70.1035 28.809 70.0195 28.524 69.9355 28.218C69.8575 28.524 69.7765 28.812 69.6925 29.082C69.6085 29.346 69.5275 29.577 69.4495 29.775L67.8745 34.086H72.0145ZM76.2895 39H74.4175C74.2075 39 74.0365 38.949 73.9045 38.847C73.7725 38.739 73.6735 38.607 73.6075 38.451L72.6355 35.796H67.2445L66.2725 38.451C66.2245 38.589 66.1315 38.715 65.9935 38.829C65.8555 38.943 65.6845 39 65.4805 39H63.5905L68.7115 25.986H71.1775L76.2895 39ZM81.872 33.96V39H79.46V33.96L74.717 25.986H76.85C77.06 25.986 77.225 26.037 77.345 26.139C77.471 26.241 77.576 26.37 77.66 26.526L80.036 30.873C80.174 31.131 80.294 31.374 80.396 31.602C80.504 31.83 80.6 32.058 80.684 32.286C80.762 32.058 80.852 31.83 80.954 31.602C81.056 31.374 81.173 31.131 81.305 30.873L83.672 26.526C83.738 26.394 83.837 26.271 83.969 26.157C84.101 26.043 84.269 25.986 84.473 25.986H86.615L81.872 33.96Z" fill="white"/>
<path d="M21.5995 19.145C22.1275 19.145 22.5602 18.9892 22.8975 18.6775C23.2385 18.3695 23.4585 17.9607 23.5575 17.451L24.8005 10.983H23.5905L23.0625 14.7945L23.0295 15.2235H22.969L22.936 14.7945L22.43 10.983H21.2145L22.3915 17.176C22.4538 17.4913 22.3768 17.7278 22.1605 17.8855C21.9478 18.0432 21.6728 18.1257 21.3355 18.133C21.2732 18.1367 21.2438 18.1367 21.2475 18.133C21.2512 18.133 21.2365 18.1367 21.2035 18.144V19.1395C21.3135 19.1432 21.4052 19.145 21.4785 19.145C21.5555 19.145 21.5958 19.145 21.5995 19.145ZM26.9035 17.088C27.2188 17.088 27.4993 17.0183 27.745 16.879C27.9943 16.7397 28.1905 16.5527 28.3335 16.318C28.4801 16.0833 28.5535 15.823 28.5535 15.537V12.446C28.5535 12.1637 28.4801 11.9052 28.3335 11.6705C28.1868 11.4358 27.9888 11.2488 27.7395 11.1095C27.4938 10.9665 27.2151 10.895 26.9035 10.895C26.5918 10.895 26.3131 10.9665 26.0675 11.1095C25.8218 11.2488 25.6275 11.4395 25.4845 11.6815C25.3451 11.9198 25.2755 12.1857 25.2755 12.479V15.504C25.2755 15.801 25.3451 16.0687 25.4845 16.307C25.6275 16.5453 25.8218 16.736 26.0675 16.879C26.3131 17.0183 26.5918 17.088 26.9035 17.088ZM26.909 16.109C26.7513 16.109 26.6395 16.0668 26.5735 15.9825C26.5075 15.8982 26.4671 15.8028 26.4525 15.6965C26.4415 15.5902 26.436 15.5058 26.436 15.4435V12.5395C26.436 12.0885 26.5918 11.863 26.9035 11.863C27.2298 11.863 27.393 12.0885 27.393 12.5395V15.4435C27.393 15.8872 27.2316 16.109 26.909 16.109ZM30.4243 17.088C30.5673 17.088 30.7213 17.0348 30.8863 16.9285C31.0549 16.8185 31.2639 16.6388 31.5133 16.3895V17H32.7508V10.983H31.5133V15.5535C31.5133 15.6232 31.4693 15.7075 31.3813 15.8065C31.2969 15.9018 31.1686 15.9495 30.9963 15.9495C30.8606 15.9495 30.7818 15.922 30.7598 15.867C30.7378 15.812 30.7268 15.7735 30.7268 15.7515V10.983H29.4783V15.911C29.4783 16.131 29.5241 16.3308 29.6158 16.5105C29.7111 16.6865 29.8303 16.8277 29.9733 16.934C30.1199 17.0367 30.2703 17.088 30.4243 17.088ZM33.8076 17H35.0616V12.82C35.0616 12.644 35.1258 12.4918 35.2541 12.3635C35.3824 12.2315 35.5456 12.138 35.7436 12.083C35.9453 12.028 36.1524 12.028 36.3651 12.083V10.895C36.1488 10.895 35.9398 10.9408 35.7381 11.0325C35.5401 11.1205 35.3769 11.236 35.2486 11.379C35.1239 11.522 35.0616 11.6742 35.0616 11.8355V10.983H33.8076V17Z" fill="#948B90"/>
<defs>
<clipPath id="clip0_37_384">
<rect width="8.75355" height="8.12829" fill="white" transform="translate(19.0153 23.3187) rotate(19.6785)"/>
</clipPath>
<clipPath id="clip1_37_384">
<rect width="10.0041" height="5.00203" fill="white" transform="translate(15.4789 31.3505) rotate(19.6785)"/>
</clipPath>
<clipPath id="clip2_37_384">
<rect width="7.50304" height="13.1303" fill="white" transform="translate(10.7729 20.371) rotate(19.6785)"/>
</clipPath>
</defs>
</svg>
