<svg width="25" height="40" viewBox="0 0 25 40" fill="none" xmlns="http://www.w3.org/2000/svg">
<path d="M2.12008 17.6739H22.4916L20.2268 38.3519L20.2268 38.3519C20.2068 38.5345 20.0762 38.6037 19.9994 38.6037H4.61225C4.53546 38.6037 4.40484 38.5345 4.38484 38.3519L2.12008 17.6739Z" fill="#C1EFE7" stroke="#1CBABA" stroke-width="2"/>
<path d="M0.5 14.0108C0.5 13.5513 0.849081 13.2205 1.22951 13.2205H23.3821C23.7625 13.2205 24.1116 13.5513 24.1116 14.0108V15.6467H0.5V14.0108Z" fill="#1CBABA" stroke="#1CBABA"/>
<path d="M2.258 10.0573C2.258 9.59777 2.60708 9.26697 2.9875 9.26697H21.373C21.7534 9.26697 22.1025 9.59778 22.1025 10.0573V11.6932H2.258V10.0573Z" fill="#1CBABA" stroke="#1CBABA"/>
<path d="M7.78528 0.860107C7.78528 0.860107 9.04098 1.07095 9.04098 2.61718C9.04098 4.1634 7.78528 4.1634 7.78528 5.49877C7.78528 6.83417 9.04098 8.23981 9.04098 8.23981" stroke="#1CBABA" stroke-linecap="round" stroke-linejoin="round"/>
<path d="M11.3013 0.860107C11.3013 0.860107 12.557 1.07095 12.557 2.61718C12.557 4.1634 11.3013 4.1634 11.3013 5.49877C11.3013 6.83417 12.557 8.23981 12.557 8.23981" stroke="#1CBABA" stroke-linecap="round" stroke-linejoin="round"/>
<path d="M14.8171 0.860107C14.8171 0.860107 16.0728 1.07095 16.0728 2.61718C16.0728 4.1634 14.8171 4.1634 14.8171 5.49877C14.8171 6.83417 16.0728 8.23981 16.0728 8.23981" stroke="#1CBABA" stroke-linecap="round" stroke-linejoin="round"/>
</svg>
