<svg width="41" height="41" viewBox="0 0 41 41" fill="none" xmlns="http://www.w3.org/2000/svg">
<circle cx="20.5" cy="20.5" r="20.5" fill="#1CBABA"/>
<path d="M9.71071 19.4575H30.6483C31.133 19.4575 31.4753 20.0162 31.322 20.5572L27.8075 32.9612C27.7108 33.3023 27.4394 33.5325 27.1337 33.5325H13.0997C12.7912 33.5325 12.518 33.2982 12.4236 32.9526L9.03458 20.5487C8.88723 20.0093 9.22917 19.4575 9.71071 19.4575Z" fill="white" stroke="#C1EFE7" stroke-width="2"/>
<mask id="path-3-inside-1_1097_252" fill="white">
<path d="M27.9915 15.1183C28.0797 15.4145 28.3124 15.6228 28.5792 15.6228C28.9449 15.6228 29.2271 15.2403 29.1427 14.8217C28.2417 10.35 24.5401 7 20.1106 7C15.6812 7 11.9795 10.35 11.0785 14.8218C10.9942 15.2403 11.2764 15.6228 11.642 15.6228C11.9088 15.6228 12.1415 15.4145 12.2297 15.1183C13.3782 11.262 16.473 8.49961 20.1106 8.49961C23.7482 8.49961 26.843 11.262 27.9915 15.1183Z"/>
</mask>
<path d="M27.9915 15.1183C28.0797 15.4145 28.3124 15.6228 28.5792 15.6228C28.9449 15.6228 29.2271 15.2403 29.1427 14.8217C28.2417 10.35 24.5401 7 20.1106 7C15.6812 7 11.9795 10.35 11.0785 14.8218C10.9942 15.2403 11.2764 15.6228 11.642 15.6228C11.9088 15.6228 12.1415 15.4145 12.2297 15.1183C13.3782 11.262 16.473 8.49961 20.1106 8.49961C23.7482 8.49961 26.843 11.262 27.9915 15.1183Z" fill="#1CBABA"/>
<path d="M27.9915 15.1183L29.9083 14.5475L29.9083 14.5474L27.9915 15.1183ZM29.1427 14.8217L31.1033 14.4267L31.1033 14.4267L29.1427 14.8217ZM11.0785 14.8218L13.0391 15.2169L13.0391 15.2168L11.0785 14.8218ZM12.2297 15.1183L10.3129 14.5474L10.3129 14.5475L12.2297 15.1183ZM26.0746 15.689C26.3411 16.5838 27.1923 17.6228 28.5792 17.6228V13.6228C29.4326 13.6228 29.8183 14.2452 29.9083 14.5475L26.0746 15.689ZM28.5792 17.6228C30.4765 17.6228 31.3813 15.806 31.1033 14.4267L27.1821 15.2168C27.1146 14.8818 27.1868 14.5182 27.4025 14.2164C27.6173 13.9158 28.0273 13.6228 28.5792 13.6228V17.6228ZM31.1033 14.4267C30.0379 9.13924 25.6076 5 20.1106 5V9C23.4725 9 26.4454 11.5607 27.1821 15.2168L31.1033 14.4267ZM20.1106 5C14.6136 5 10.1833 9.13926 9.1179 14.4267L13.0391 15.2168C13.7758 11.5607 16.7487 9 20.1106 9V5ZM9.1179 14.4267C8.83994 15.8061 9.74482 17.6228 11.642 17.6228V13.6228C12.194 13.6228 12.6039 13.9158 12.8187 14.2164C13.0343 14.5181 13.1066 14.8818 13.0391 15.2169L9.1179 14.4267ZM11.642 17.6228C13.0289 17.6228 13.8801 16.5838 14.1466 15.689L10.3129 14.5475C10.4029 14.2452 10.7886 13.6228 11.642 13.6228V17.6228ZM14.1465 15.6891C15.1084 12.4593 17.569 10.4996 20.1106 10.4996V6.49961C15.377 6.49961 11.648 10.0647 10.3129 14.5474L14.1465 15.6891ZM20.1106 10.4996C22.6522 10.4996 25.1128 12.4593 26.0747 15.6891L29.9083 14.5474C28.5733 10.0647 24.8442 6.49961 20.1106 6.49961V10.4996Z" fill="#C1EFE7" mask="url(#path-3-inside-1_1097_252)"/>
</svg>
