<svg width="25" height="24" viewBox="0 0 25 24" fill="none" xmlns="http://www.w3.org/2000/svg">
<path d="M2.19069 10.799H23.1282C23.613 10.799 23.9553 11.2833 23.802 11.7522L20.2874 22.5048C20.1908 22.8005 19.9194 23 19.6137 23H5.5797C5.2712 23 4.99799 22.7969 4.9036 22.4974L1.51457 11.7448C1.36721 11.2773 1.70915 10.799 2.19069 10.799Z" fill="white" stroke="#D1BFC8" stroke-width="2"/>
<path d="M20.4716 7.03742C20.5598 7.29421 20.7925 7.47477 21.0593 7.47477C21.425 7.47477 21.7072 7.1432 21.6228 6.78038C20.7218 2.90398 17.0202 0 12.5907 0C8.16127 0 4.45964 2.904 3.55859 6.78042C3.47426 7.1432 3.75647 7.47477 4.12209 7.47477C4.38887 7.47477 4.62163 7.29421 4.70984 7.03742C5.85829 3.69454 8.9531 1.29996 12.5907 1.29996C16.2283 1.29996 19.3231 3.69454 20.4716 7.03742Z" fill="#D1BFC8"/>
</svg>
