<svg width="28" height="27" viewBox="0 0 28 27" fill="none" xmlns="http://www.w3.org/2000/svg">
<path fill-rule="evenodd" clip-rule="evenodd" d="M27.3196 13.3658C27.3196 5.98405 21.2039 0 13.6598 0C6.1157 0 0 5.98405 0 13.3658C0 20.7475 6.1157 26.7315 13.6598 26.7315C21.2039 26.7315 27.3196 20.7475 27.3196 13.3658ZM18.4696 13.3658C18.4696 10.7666 16.3162 8.65954 13.6598 8.65954C11.0034 8.65954 8.85005 10.7666 8.85005 13.3658C8.85005 15.965 11.0034 18.072 13.6598 18.072C16.3162 18.072 18.4696 15.965 18.4696 13.3658Z" fill="#D1BFC8"/>
<path d="M1.54042 16.6285L1.53827 16.6148L1.53427 16.6015C1.01174 14.8631 0.537942 11.2746 1.45376 8.11346C1.91057 6.53677 2.70961 5.07776 4.00898 4.00312C5.30601 2.93034 7.11922 2.22583 9.63357 2.18602C9.84882 2.18262 10.1722 2.14729 10.5823 2.10246C11.9014 1.95831 14.1181 1.71609 16.5215 2.1228C19.6413 2.65074 23.0093 4.2735 24.891 8.66228C27.3671 14.4375 23.2781 20.9975 16.865 23.6258C13.6358 24.6578 10.0057 24.2257 7.07608 22.8669C4.13938 21.5048 1.95006 19.234 1.54042 16.6285ZM9.50733 14.8774C10.273 17.1656 12.6842 18.4708 14.9102 17.7577C17.1362 17.0445 18.2916 14.5967 17.5259 12.3084C17.1468 11.1753 16.4708 10.2789 15.5468 9.77345C14.6196 9.26626 13.4691 9.16723 12.1744 9.58198C10.8798 9.99677 10.012 10.7424 9.57092 11.688C9.13135 12.6303 9.12817 13.7443 9.50733 14.8774Z" fill="white" stroke="white"/>
<path d="M8.12032 4.20753C8.12957 4.31097 8.05134 4.40208 7.94559 4.41101L7.93799 4.41163C7.83224 4.42055 7.73899 4.34393 7.72975 4.24045C7.7205 4.13701 7.79872 4.0459 7.90448 4.03697L7.91211 4.03635C8.01787 4.02743 8.11107 4.10405 8.12032 4.20753Z" fill="#D1BFC8"/>
<path d="M8.01428 10.8011C8.23966 10.7821 8.40642 10.5879 8.38669 10.3674L8.385 10.3482C8.36527 10.1277 8.16657 9.96437 7.94118 9.98338C7.71576 10.0024 7.549 10.1966 7.56872 10.4171L7.57042 10.4362C7.59015 10.6568 7.78885 10.8201 8.01428 10.8011Z" fill="#D1BFC8"/>
<path d="M20.8428 19.6719C21.0683 19.6529 21.235 19.4587 21.2153 19.2382L21.2136 19.219C21.1939 18.9985 20.9952 18.8352 20.7698 18.8542C20.5444 18.8732 20.3776 19.0674 20.3973 19.2878L20.399 19.307C20.4188 19.5276 20.6175 19.6909 20.8428 19.6719Z" fill="#D1BFC8"/>
<path d="M3.10057 13.0461C3.326 13.0271 3.49271 12.833 3.47303 12.6125L3.47129 12.5933C3.45161 12.3728 3.25291 12.2094 3.02748 12.2284C2.80209 12.2474 2.63534 12.4416 2.65502 12.6621L2.65676 12.6813C2.67644 12.9018 2.87519 13.0652 3.10057 13.0461Z" fill="#D1BFC8"/>
<path d="M7.21607 6.78568C7.23576 7.00617 7.069 7.20035 6.84361 7.21936C6.61819 7.23837 6.41949 7.07504 6.3998 6.8545L6.39806 6.83533C6.37838 6.61484 6.54514 6.42066 6.77052 6.40165C6.99595 6.38264 7.19465 6.54602 7.21433 6.76651L7.21607 6.78568Z" fill="#D1BFC8"/>
<path d="M20.4924 15.5023C20.7178 15.4833 20.8846 15.2891 20.8648 15.0686L20.8631 15.0495C20.8434 14.8289 20.6447 14.6656 20.4193 14.6846C20.1939 14.7036 20.0271 14.8978 20.0469 15.1183L20.0486 15.1375C20.0683 15.358 20.267 15.5213 20.4924 15.5023Z" fill="#D1BFC8"/>
<path d="M3.47181 16.1145C3.49149 16.335 3.32474 16.5291 3.09935 16.5482C2.87392 16.5672 2.67522 16.4038 2.65554 16.1833L2.6538 16.1641C2.63412 15.9436 2.80083 15.7495 3.02626 15.7304C3.25164 15.7114 3.45039 15.8748 3.47007 16.0953L3.47181 16.1145Z" fill="#D1BFC8"/>
<path d="M4.79866 9.57086C5.02408 9.55185 5.19084 9.35768 5.17111 9.13719L5.16942 9.11801C5.14969 8.89748 4.95099 8.73414 4.72556 8.75315C4.50018 8.77216 4.33342 8.96634 4.35315 9.18683L4.35484 9.20601C4.37457 9.4265 4.57327 9.58987 4.79866 9.57086Z" fill="#D1BFC8"/>
<path d="M19.167 17.7507C19.1867 17.9712 19.0199 18.1654 18.7945 18.1844C18.5691 18.2034 18.3704 18.0401 18.3507 17.8195L18.349 17.8004C18.3293 17.5799 18.496 17.3857 18.7215 17.3667C18.9468 17.3477 19.1455 17.511 19.1653 17.7315L19.167 17.7507Z" fill="#D1BFC8"/>
<path d="M6.31469 17.7784C6.54007 17.7594 6.70683 17.5653 6.6871 17.3448L6.68541 17.3256C6.66568 17.1051 6.46698 16.9417 6.2416 16.9607C6.01617 16.9797 5.84941 17.1739 5.86914 17.3944L5.87083 17.4136C5.89056 17.6341 6.08926 17.7975 6.31469 17.7784Z" fill="#D1BFC8"/>
<path d="M5.15059 4.99372C5.15984 5.09716 5.08162 5.18827 4.97586 5.1972L4.96827 5.19782C4.86251 5.20674 4.76927 5.13012 4.76002 5.02664C4.75077 4.9232 4.829 4.83209 4.9348 4.82317L4.94239 4.82255C5.04814 4.81362 5.14134 4.89025 5.15059 4.99372Z" fill="#D1BFC8"/>
<path d="M12.1866 7.65696C12.2923 7.64803 12.3705 7.55692 12.3613 7.45344C12.352 7.35 12.2588 7.27334 12.153 7.28226L12.1454 7.28293C12.0397 7.29185 11.9615 7.38292 11.9707 7.4864C11.98 7.58988 12.0732 7.6665 12.179 7.65758L12.1866 7.65696Z" fill="#D1BFC8"/>
<path d="M12.3564 20.5862C12.3657 20.6896 12.2874 20.7807 12.1817 20.7897L12.1741 20.7903C12.0683 20.7992 11.9751 20.7226 11.9658 20.6191C11.9566 20.5157 12.0348 20.4246 12.1406 20.4156L12.1482 20.415C12.254 20.4061 12.3472 20.4827 12.3564 20.5862Z" fill="#D1BFC8"/>
<path d="M8.71621 20.3784C8.82201 20.3694 8.90024 20.2783 8.89099 20.1749C8.88174 20.0714 8.7885 19.9948 8.68274 20.0037L8.67515 20.0043C8.56939 20.0132 8.49113 20.1044 8.50038 20.2078C8.50962 20.3113 8.60286 20.3879 8.70862 20.379L8.71621 20.3784Z" fill="#D1BFC8"/>
<path d="M3.02852 7.86714C3.03777 7.97057 2.95955 8.06168 2.85379 8.07061L2.8462 8.07123C2.7404 8.08016 2.6472 8.00353 2.63795 7.90005C2.6287 7.79661 2.70693 7.7055 2.81268 7.69658L2.82028 7.69596C2.92603 7.68703 3.01927 7.76366 3.02852 7.86714Z" fill="#D1BFC8"/>
<path d="M9.56473 5.92791C9.67048 5.91899 9.74875 5.82788 9.7395 5.72444C9.73025 5.62096 9.63701 5.54433 9.53126 5.55326L9.52366 5.55388C9.41791 5.5628 9.33964 5.65392 9.34889 5.75735C9.35813 5.86083 9.45138 5.93746 9.55713 5.92853L9.56473 5.92791Z" fill="#D1BFC8"/>
<path d="M21.715 10.5541C21.7347 10.7745 21.5679 10.9687 21.3425 10.9877C21.1171 11.0067 20.9184 10.8434 20.8987 10.6229L20.897 10.6037C20.8773 10.3832 21.044 10.189 21.2694 10.17C21.4949 10.151 21.6936 10.3144 21.7132 10.5349L21.715 10.5541Z" fill="#D1BFC8"/>
<path d="M16.1025 19.0072C16.1117 19.1106 16.0335 19.2017 15.9278 19.2106L15.9202 19.2113C15.8144 19.2202 15.7212 19.1435 15.7119 19.0401C15.7027 18.9366 15.7809 18.8455 15.8867 18.8366L15.8942 18.836C16 18.827 16.0932 18.9037 16.1025 19.0072Z" fill="#D1BFC8"/>
<path d="M8.89099 18.5919C8.90024 18.6954 8.82197 18.7865 8.71621 18.7954L8.70862 18.7961C8.60286 18.805 8.50962 18.7283 8.50038 18.6249C8.49113 18.5214 8.56935 18.4303 8.67515 18.4214L8.68274 18.4208C8.7885 18.4118 8.88174 18.4885 8.89099 18.5919Z" fill="#D1BFC8"/>
<path d="M7.8677 16.305C7.97346 16.2961 8.05169 16.205 8.04244 16.1015C8.03319 15.9981 7.93995 15.9214 7.83419 15.9303L7.8266 15.931C7.72084 15.9399 7.64262 16.031 7.65187 16.1345C7.66111 16.2379 7.75431 16.3146 7.86011 16.3056L7.8677 16.305Z" fill="#D1BFC8"/>
<path d="M6.34566 19.8374C6.35491 19.9408 6.27668 20.0319 6.17093 20.0408L6.16333 20.0415C6.05754 20.0504 5.96434 19.9738 5.95509 19.8703C5.94584 19.7668 6.02406 19.6757 6.12982 19.6668L6.13741 19.6662C6.24317 19.6572 6.33641 19.7339 6.34566 19.8374Z" fill="#D1BFC8"/>
<path d="M17.2381 6.82328C17.3012 6.72706 17.2721 6.59992 17.1732 6.53928C17.0743 6.47868 16.943 6.50752 16.8799 6.60374L16.4266 7.29552C16.3636 7.39169 16.3927 7.51887 16.4916 7.57947C16.5905 7.64012 16.7218 7.61127 16.7849 7.51505L17.2381 6.82328Z" fill="#D1BFC8"/>
<path d="M5.13716 11.0076C5.24567 10.9647 5.36971 11.0158 5.41426 11.1216L5.73276 11.8785C5.7773 11.9844 5.72542 12.1048 5.6169 12.1476C5.50843 12.1904 5.38439 12.1393 5.33985 12.0335L5.02131 11.2766C4.97681 11.1708 5.02869 11.0504 5.13716 11.0076Z" fill="#D1BFC8"/>
<path d="M9.16471 8.03754C9.22266 7.93826 9.18694 7.81261 9.08496 7.75695C8.98298 7.70129 8.8533 7.73665 8.79535 7.83598L8.37932 8.54884C8.32137 8.64813 8.35709 8.77373 8.45907 8.8294C8.5611 8.88506 8.69074 8.84969 8.74868 8.75041L9.16471 8.03754Z" fill="#D1BFC8"/>
<path d="M3.5846 9.40908C3.68497 9.46744 3.71712 9.59391 3.65642 9.69158L3.22024 10.3934C3.1595 10.491 3.02892 10.5229 2.92855 10.4645C2.82819 10.4062 2.79603 10.2797 2.85674 10.182L3.29291 9.48026C3.35362 9.38259 3.48419 9.35072 3.5846 9.40908Z" fill="#D1BFC8"/>
<path d="M17.4634 21.6281C17.4635 21.4015 17.2758 21.2178 17.0441 21.2179H17.0346C16.8029 21.218 16.6151 21.4018 16.615 21.6284C16.6149 21.8551 16.8026 22.0388 17.0343 22.0387H17.0438C17.2755 22.0386 17.4633 21.8548 17.4634 21.6281Z" fill="#D1BFC8"/>
<path d="M22.3997 13.3738C22.4949 13.1667 22.7457 13.0734 22.9582 13.1647C23.1706 13.2559 23.2669 13.4985 23.1717 13.7056C23.0765 13.9128 22.8257 14.0061 22.6132 13.9148C22.4008 13.8235 22.3044 13.581 22.3997 13.3738Z" fill="#D1BFC8"/>
<path d="M6.44649 13.8366C6.62916 13.7131 6.67344 13.4693 6.54542 13.292L6.52331 13.2614C6.39529 13.0841 6.14343 13.0405 5.96081 13.164C5.77814 13.2875 5.73385 13.5314 5.86188 13.7086L5.88398 13.7392C6.01201 13.9165 6.26387 13.9601 6.44649 13.8366Z" fill="#D1BFC8"/>
<path d="M14.0804 5.6239C14.312 5.62382 14.4998 5.80749 14.4997 6.03413C14.4996 6.2608 14.3117 6.4446 14.0801 6.44468H14.0705C13.8389 6.44477 13.6512 6.26109 13.6512 6.03442C13.6513 5.80778 13.8392 5.62398 14.0708 5.6239H14.0804Z" fill="#D1BFC8"/>
<path d="M4.74279 6.03752C4.74288 5.81085 4.55516 5.62718 4.32354 5.62726H4.31396C4.08234 5.62734 3.89449 5.81118 3.89441 6.03781C3.89432 6.26449 4.08204 6.44816 4.31366 6.44808H4.32324C4.55486 6.448 4.74275 6.2642 4.74279 6.03752Z" fill="#D1BFC8"/>
<path d="M19.376 8.10774C19.5319 8.27684 19.5166 8.5361 19.3419 8.68682L19.2885 8.73289C19.1138 8.88361 18.8458 8.86871 18.69 8.6996C18.5341 8.53046 18.5494 8.2712 18.7241 8.12048L18.7775 8.07441C18.9522 7.92369 19.2201 7.93864 19.376 8.10774Z" fill="#D1BFC8"/>
</svg>
