<svg width="28" height="24" viewBox="0 0 28 24" fill="none" xmlns="http://www.w3.org/2000/svg">
<path d="M24.6956 24C26.383 21.4982 27.381 18.401 27.381 15.0476C27.381 6.73704 21.2515 0 13.6905 0C6.12944 0 0 6.73704 0 15.0476C0 18.401 0.997999 21.4982 2.68537 24H24.6956Z" fill="#C4C4C4"/>
<path d="M13.6018 16.3798C16.4372 16.3798 18.7358 13.8214 18.7358 10.6655C18.7358 7.50955 16.4372 4.95117 13.6018 4.95117C10.7664 4.95117 8.4679 7.50955 8.4679 10.6655C8.4679 13.8214 10.7664 16.3798 13.6018 16.3798Z" fill="white"/>
<path d="M21.7276 23.9988H5.81848C6.39696 19.687 9.73803 16.3799 13.7731 16.3799C17.8081 16.3799 21.1492 19.687 21.7276 23.9988Z" fill="white"/>
</svg>
