<svg width="22" height="11" viewBox="0 0 22 11" fill="none" xmlns="http://www.w3.org/2000/svg">
<g clip-path="url(#clip0_32_211)">
<path d="M2.39417 5.33472C2.70084 6.32083 3.78248 7.04945 5.06972 7.04945C6.35699 7.04945 7.43861 6.32083 7.74529 5.33472H2.39417Z" fill="#D1BFC8"/>
<path d="M8.49097 5.33472C8.79765 6.32083 9.87929 7.04945 11.1665 7.04945C12.4538 7.04945 13.5354 6.32083 13.8421 5.33472H8.49097Z" fill="#D1BFC8"/>
<path d="M14.2067 5.33472C14.5133 6.32083 15.595 7.04945 16.8822 7.04945C18.1695 7.04945 19.2511 6.32083 19.5578 5.33472H14.2067Z" fill="#D1BFC8"/>
<path d="M21.086 2.90215C21.3956 3.29516 21.0601 3.78669 20.5598 3.78669H1.50557C1.00523 3.78669 0.670842 3.29228 1.00296 2.91808C2.54042 1.18579 6.68385 0.468492 11.0629 0.0714923C15.4619 -0.327314 19.5772 0.986991 21.086 2.90215Z" fill="#D1BFC8"/>
<path d="M1.27656 9.21295C0.829655 8.91287 1.10919 8.38306 1.64749 8.38306H20.4784C21.0167 8.38306 21.2951 8.91206 20.8473 9.21082C19.1196 10.3636 15.1517 11 11.0326 11C6.91606 11.0001 2.99138 10.3644 1.27656 9.21295Z" fill="#D1BFC8"/>
<path d="M6.51791 2.21654C6.37418 2.3592 6.37332 2.59136 6.51598 2.73509C6.65866 2.8788 6.89081 2.87966 7.03452 2.737L6.51791 2.21654ZM10.0151 1.12872C10.2176 1.12872 10.3818 0.964555 10.3818 0.762052C10.3818 0.559547 10.2176 0.395386 10.0151 0.395386V1.12872ZM6.77622 2.47676C7.03452 2.737 7.03447 2.73705 7.03445 2.7371C7.03442 2.7371 7.0344 2.73712 7.0344 2.73714C7.03437 2.73717 7.03437 2.73714 7.0344 2.73712C7.03445 2.73707 7.03462 2.7369 7.03489 2.73663C7.03542 2.73612 7.03635 2.73519 7.0377 2.73387C7.04039 2.73125 7.04469 2.72705 7.05053 2.72143C7.06222 2.71013 7.08011 2.69307 7.1037 2.67102C7.15092 2.6269 7.22088 2.56303 7.30984 2.48598C7.48811 2.33154 7.74055 2.12599 8.03721 1.92113C8.64741 1.49977 9.37786 1.12872 10.0151 1.12872V0.395386C9.1409 0.395386 8.2519 0.881693 7.6205 1.31769C7.29639 1.54151 7.02252 1.76464 6.82965 1.93171C6.73302 2.01541 6.65622 2.0855 6.60308 2.13516C6.57648 2.16 6.55578 2.17976 6.54143 2.1936C6.53426 2.20052 6.52867 2.20596 6.52473 2.20982C6.52275 2.21175 6.52121 2.21328 6.52006 2.2144C6.5195 2.21496 6.51904 2.21542 6.51867 2.21578C6.51847 2.21596 6.51833 2.21611 6.5182 2.21624C6.51813 2.2163 6.51806 2.21637 6.51803 2.21641C6.51796 2.21648 6.51791 2.21654 6.77622 2.47676Z" fill="white"/>
<path d="M9.17322 1.98722C9.02658 2.12689 9.02096 2.35898 9.16061 2.50561C9.30029 2.65225 9.53239 2.65788 9.679 2.51822L9.17322 1.98722ZM12.6921 0.971718C12.8946 0.975893 13.0621 0.815149 13.0663 0.612688C13.0705 0.410227 12.9097 0.242716 12.7072 0.238542L12.6921 0.971718ZM9.42613 2.25272C9.679 2.51823 9.67895 2.51827 9.67893 2.5183C9.67891 2.5183 9.67888 2.51835 9.67886 2.51835C9.67883 2.51837 9.67886 2.51837 9.67888 2.51835C9.67893 2.5183 9.6791 2.51813 9.67937 2.51788C9.67991 2.51737 9.68089 2.51647 9.68225 2.51517C9.68499 2.5126 9.68937 2.5085 9.69533 2.50297C9.70726 2.49195 9.7255 2.47523 9.74953 2.45367C9.79766 2.41054 9.86891 2.34812 9.95943 2.27293C10.1408 2.12219 10.3975 1.9219 10.6983 1.72319C11.3171 1.3145 12.055 0.958584 12.6921 0.971718L12.7072 0.238542C11.8332 0.220522 10.9343 0.688405 10.2941 1.11129C9.96547 1.32838 9.68705 1.54582 9.49078 1.70888C9.39244 1.79058 9.31422 1.85906 9.26005 1.90761C9.23297 1.9319 9.21185 1.95123 9.19723 1.96477C9.18992 1.97154 9.1842 1.97687 9.18019 1.98064C9.17819 1.98253 9.1766 1.98403 9.17542 1.98513C9.17484 1.98568 9.17437 1.98613 9.17401 1.98648C9.17381 1.98666 9.17366 1.98681 9.17354 1.98693C9.17347 1.98699 9.1734 1.98706 9.17335 1.9871C9.1733 1.98716 9.17322 1.98722 9.42613 2.25272Z" fill="white"/>
<path d="M11.6572 2.20142C11.5123 2.34291 11.5096 2.57505 11.6511 2.71993C11.7926 2.86481 12.0248 2.86752 12.1696 2.72604L11.6572 2.20142ZM15.1631 1.14196C15.3656 1.1436 15.5311 0.980769 15.5328 0.778271C15.5344 0.575774 15.3716 0.410287 15.1691 0.408647L15.1631 1.14196ZM11.9134 2.46373C12.1696 2.72604 12.1696 2.72609 12.1695 2.72614C12.1695 2.72614 12.1695 2.72616 12.1695 2.72619C12.1694 2.72621 12.1695 2.72621 12.1695 2.72616C12.1695 2.72611 12.1697 2.72594 12.17 2.7257C12.1705 2.72518 12.1715 2.72425 12.1728 2.72296C12.1755 2.72034 12.1799 2.71619 12.1857 2.71059C12.1975 2.69942 12.2155 2.68248 12.2393 2.66063C12.2869 2.61689 12.3574 2.55358 12.4469 2.47727C12.6265 2.32427 12.8806 2.12078 13.1789 1.91832C13.7925 1.50192 14.5259 1.1368 15.1631 1.14196L15.1691 0.408647C14.2949 0.401568 13.402 0.880662 12.7671 1.31153C12.4412 1.53271 12.1655 1.75362 11.9713 1.91912C11.874 2.00205 11.7966 2.07151 11.7431 2.12073C11.7163 2.14535 11.6954 2.16495 11.6809 2.17867C11.6737 2.18553 11.6681 2.19093 11.6641 2.19475C11.6621 2.19667 11.6606 2.19819 11.6594 2.1993C11.6588 2.19986 11.6584 2.20031 11.658 2.20067C11.6578 2.20085 11.6576 2.201 11.6575 2.20112C11.6575 2.20119 11.6574 2.20126 11.6574 2.20129C11.6573 2.20136 11.6572 2.20142 11.9134 2.46373Z" fill="white"/>
<path d="M0.556002 6.97465C0.356915 6.93762 0.165492 7.06898 0.128445 7.26806C0.0913994 7.46716 0.222759 7.65858 0.421846 7.69562L0.556002 6.97465ZM7.25251 7.90672L7.25815 8.27334L7.25251 7.90672ZM18.6839 7.90672L18.7197 8.27162L18.6839 7.90672ZM21.6364 7.68941C21.832 7.63717 21.9483 7.43621 21.896 7.24056C21.8438 7.0449 21.6429 6.92865 21.4472 6.98088L21.6364 7.68941ZM0.421846 7.69562C3.05185 8.18502 4.58332 8.31443 7.25815 8.27334L7.24688 7.54008C4.62082 7.58043 3.13807 7.45513 0.556002 6.97465L0.421846 7.69562ZM7.25815 8.27334C8.40878 8.25566 9.31351 8.10858 10.1872 7.97015C11.0608 7.83175 11.9041 7.7018 12.9682 7.7018V6.96847C11.8413 6.96847 10.9483 7.10709 10.0725 7.24586C9.19684 7.38458 8.33926 7.52331 7.24688 7.54008L7.25815 8.27334ZM12.9682 7.7018C14.0209 7.7018 14.8534 7.89051 15.7405 8.06294C16.6262 8.23508 17.5495 8.38637 18.7197 8.27162L18.6482 7.54179C17.5859 7.64594 16.7468 7.51145 15.8805 7.34308C15.0156 7.17497 14.1065 6.96847 12.9682 6.96847V7.7018ZM18.7197 8.27162C19.3098 8.21376 20.0426 8.06661 20.6182 7.93698C20.9081 7.87171 21.162 7.80997 21.3436 7.76452C21.4344 7.74179 21.5072 7.72312 21.5575 7.71006C21.5827 7.70354 21.6022 7.69843 21.6155 7.69491C21.6222 7.69317 21.6273 7.6918 21.6308 7.69087C21.6325 7.69041 21.6339 7.69007 21.6348 7.68982C21.6353 7.6897 21.6356 7.6896 21.6359 7.68953C21.636 7.68948 21.6361 7.68946 21.6362 7.68943C21.6363 7.68943 21.6363 7.68943 21.6363 7.68941C21.6363 7.68941 21.6364 7.68941 21.5418 7.33513C21.4472 6.98088 21.4472 6.98088 21.4472 6.98088C21.4472 6.98088 21.4472 6.98088 21.4472 6.98088C21.4472 6.98088 21.4471 6.98091 21.4471 6.98093C21.4469 6.98096 21.4466 6.98103 21.4463 6.98113C21.4455 6.98132 21.4444 6.98164 21.4428 6.98206C21.4397 6.98286 21.435 6.98411 21.4288 6.98575C21.4163 6.98905 21.3976 6.99394 21.3734 7.00022C21.3249 7.01278 21.2541 7.03097 21.1655 7.05314C20.9882 7.09751 20.7401 7.15784 20.4571 7.22156C19.8869 7.34997 19.1908 7.4886 18.6482 7.54179L18.7197 8.27162Z" fill="#D1BFC8"/>
<path d="M1.06042 4.5726C1.06042 4.46739 1.14573 4.38208 1.25095 4.38208H20.8749C20.9801 4.38208 21.0654 4.46739 21.0654 4.5726C21.0654 4.67783 20.9801 4.76312 20.8749 4.76312H1.25095C1.14572 4.76312 1.06042 4.67783 1.06042 4.5726Z" fill="#D1BFC8"/>
<path d="M16.7762 7.00354L13.1846 4.60913H19.631L16.7762 7.00354Z" fill="white" stroke="#D1BFC8" stroke-width="0.3"/>
</g>
<defs>
<clipPath id="clip0_32_211">
<rect width="22" height="11" fill="white"/>
</clipPath>
</defs>
</svg>
