<svg width="44" height="22" viewBox="0 0 44 22" fill="none" xmlns="http://www.w3.org/2000/svg">
<g clip-path="url(#clip0_16_342)">
<path d="M4.78838 10.6694C5.40172 12.6417 7.56501 14.0989 10.1395 14.0989C12.714 14.0989 14.8773 12.6417 15.4906 10.6694H4.78838Z" fill="#F51A1A"/>
<path d="M16.982 10.6694C17.5953 12.6417 19.7586 14.0989 22.3331 14.0989C24.9077 14.0989 27.0709 12.6417 27.6843 10.6694H16.982Z" fill="#F51A1A"/>
<path d="M28.4133 10.6694C29.0266 12.6417 31.1899 14.0989 33.7644 14.0989C36.3389 14.0989 38.5022 12.6417 39.1155 10.6694H28.4133Z" fill="#F51A1A"/>
<path d="M42.1721 5.80429C42.7914 6.59033 42.1204 7.57339 41.1197 7.57339H3.01124C2.01058 7.57339 1.34179 6.58456 2.00603 5.83617C5.08095 2.37158 13.3678 0.936984 22.1259 0.142985C30.9239 -0.654628 39.1546 1.97398 42.1721 5.80429Z" fill="#ED9D24"/>
<path d="M2.55323 18.4258C1.65942 17.8256 2.21848 16.766 3.29509 16.766H40.9569C42.0335 16.766 42.5904 17.824 41.6948 18.4215C38.2393 20.727 30.3036 21.9999 22.0654 21.9999C13.8322 22 5.98287 20.7286 2.55323 18.4258Z" fill="#ED9D24"/>
<path d="M13.0358 4.4332C12.7483 4.71853 12.7466 5.18284 13.0319 5.4703C13.3173 5.75772 13.7816 5.75943 14.069 5.47412L13.0358 4.4332ZM20.0302 2.25756C20.4352 2.25756 20.7635 1.92923 20.7635 1.52423C20.7635 1.11922 20.4352 0.790894 20.0302 0.790894V2.25756ZM13.5524 4.95365C14.069 5.47412 14.0689 5.47422 14.0688 5.47431C14.0688 5.47431 14.0687 5.47436 14.0687 5.47441C14.0687 5.47446 14.0687 5.47441 14.0687 5.47436C14.0688 5.47426 14.0692 5.47392 14.0697 5.47338C14.0708 5.47236 14.0726 5.4705 14.0753 5.46786C14.0807 5.46263 14.0893 5.45422 14.101 5.44298C14.1244 5.42039 14.1602 5.38626 14.2073 5.34217C14.3018 5.25392 14.4417 5.12618 14.6196 4.97208C14.9762 4.66319 15.481 4.2521 16.0744 3.84238C17.2948 2.99966 18.7557 2.25756 20.0302 2.25756V0.790894C18.2817 0.790894 16.5037 1.76351 15.2409 2.6355C14.5927 3.08313 14.045 3.5294 13.6592 3.86354C13.466 4.03095 13.3124 4.17112 13.2061 4.27043C13.1529 4.32011 13.1115 4.35964 13.0828 4.38731C13.0685 4.40115 13.0573 4.41204 13.0494 4.41976C13.0454 4.42361 13.0424 4.42668 13.0401 4.42893C13.0389 4.43005 13.038 4.43097 13.0373 4.43168C13.0369 4.43204 13.0366 4.43234 13.0363 4.4326C13.0362 4.43273 13.0361 4.43287 13.036 4.43294C13.0359 4.43307 13.0358 4.4332 13.5524 4.95365Z" fill="white"/>
<path d="M18.3464 3.97445C18.0532 4.25379 18.0419 4.71797 18.3212 5.01122C18.6006 5.30451 19.0648 5.31575 19.358 5.03645L18.3464 3.97445ZM25.3842 1.94344C25.7891 1.95179 26.1242 1.6303 26.1325 1.22538C26.1409 0.820454 25.8194 0.485432 25.4145 0.477083L25.3842 1.94344ZM18.8523 4.50544C19.358 5.03645 19.3579 5.03655 19.3579 5.0366C19.3578 5.0366 19.3578 5.0367 19.3577 5.0367C19.3577 5.03674 19.3577 5.03674 19.3578 5.0367C19.3579 5.0366 19.3582 5.03625 19.3587 5.03577C19.3598 5.03474 19.3618 5.03293 19.3645 5.03034C19.37 5.02521 19.3787 5.01699 19.3907 5.00594C19.4145 4.98389 19.451 4.95045 19.4991 4.90733C19.5953 4.82109 19.7378 4.69625 19.9189 4.54586C20.2817 4.24439 20.7949 3.84379 21.3966 3.44638C22.6341 2.62899 24.11 1.91717 25.3842 1.94344L25.4145 0.477083C23.6664 0.441045 21.8687 1.37681 20.5882 2.22258C19.9309 2.65676 19.3741 3.09164 18.9816 3.41775C18.7849 3.58116 18.6284 3.71813 18.5201 3.81523C18.4659 3.8638 18.4237 3.90246 18.3945 3.92954C18.3798 3.94308 18.3684 3.95373 18.3604 3.96129C18.3564 3.96506 18.3532 3.96806 18.3508 3.97027C18.3497 3.97137 18.3487 3.97227 18.348 3.97297C18.3476 3.97331 18.3473 3.97361 18.3471 3.97386C18.3469 3.97398 18.3468 3.97413 18.3467 3.97419C18.3466 3.97432 18.3464 3.97445 18.8523 4.50544Z" fill="white"/>
<path d="M23.3144 4.40284C23.0246 4.68583 23.0192 5.15009 23.3022 5.43986C23.5851 5.72962 24.0494 5.73505 24.3392 5.45208L23.3144 4.40284ZM30.3262 2.28391C30.7312 2.28719 31.0622 1.96154 31.0654 1.55654C31.0687 1.15155 30.7431 0.820574 30.3381 0.817294L30.3262 2.28391ZM23.8268 4.92745C24.3392 5.45208 24.3391 5.45218 24.339 5.45227C24.339 5.45227 24.3389 5.45232 24.3389 5.45237C24.3388 5.45242 24.3389 5.45242 24.3389 5.45232C24.339 5.45223 24.3394 5.45188 24.3399 5.45139C24.341 5.45037 24.3429 5.44851 24.3456 5.44592C24.351 5.44069 24.3596 5.43238 24.3714 5.42118C24.395 5.39884 24.431 5.36496 24.4786 5.32125C24.5737 5.23379 24.7147 5.10717 24.8938 4.95454C25.2528 4.64854 25.761 4.24155 26.3577 3.83665C27.5848 3.00383 29.0517 2.27359 30.3262 2.28391L30.3381 0.817294C28.5897 0.803135 26.8039 1.76132 25.5341 2.62305C24.8823 3.06543 24.3309 3.50724 23.9425 3.83824C23.7479 4.00409 23.5932 4.14301 23.486 4.24146C23.4325 4.29071 23.3908 4.32989 23.3618 4.35733C23.3474 4.37106 23.3361 4.38185 23.3281 4.3895C23.3242 4.39333 23.321 4.39637 23.3188 4.3986C23.3176 4.39972 23.3166 4.40063 23.3159 4.40134C23.3156 4.40169 23.3152 4.40199 23.315 4.40224C23.3149 4.40237 23.3147 4.40252 23.3146 4.40258C23.3145 4.40272 23.3144 4.40284 23.8268 4.92745Z" fill="white"/>
<path d="M1.1119 13.9492C0.713722 13.8751 0.330876 14.1378 0.256784 14.536C0.182692 14.9342 0.445412 15.317 0.843586 15.3911L1.1119 13.9492ZM14.5049 15.8133L14.5162 16.5465L14.5049 15.8133ZM37.3677 15.8133L37.4393 16.5431L37.3677 15.8133ZM43.2726 15.3787C43.6639 15.2742 43.8965 14.8723 43.792 14.481C43.6876 14.0897 43.2856 13.8572 42.8943 13.9616L43.2726 15.3787ZM0.843586 15.3911C6.1036 16.3699 9.16653 16.6287 14.5162 16.5465L14.4937 15.08C9.24153 15.1607 6.27603 14.9101 1.1119 13.9492L0.843586 15.3911ZM14.5162 16.5465C16.8174 16.5112 18.6269 16.217 20.3744 15.9402C22.1215 15.6634 23.8081 15.4035 25.9364 15.4035V13.9368C23.6826 13.9368 21.8965 14.2141 20.1449 14.4916C18.3936 14.769 16.6784 15.0465 14.4937 15.08L14.5162 16.5465ZM25.9364 15.4035C28.0418 15.4035 29.7068 15.7809 31.481 16.1258C33.2523 16.47 35.0988 16.7726 37.4393 16.5431L37.2962 15.0835C35.1716 15.2918 33.4935 15.0228 31.7608 14.686C30.0311 14.3498 28.213 13.9368 25.9364 13.9368V15.4035ZM37.4393 16.5431C38.6195 16.4274 40.0851 16.1331 41.2363 15.8738C41.816 15.7433 42.3239 15.6198 42.6871 15.5289C42.8687 15.4835 43.0143 15.4461 43.1149 15.42C43.1652 15.4069 43.2043 15.3967 43.2309 15.3897C43.2442 15.3862 43.2545 15.3835 43.2615 15.3816C43.265 15.3807 43.2677 15.38 43.2695 15.3795C43.2704 15.3793 43.2712 15.3791 43.2717 15.3789C43.272 15.3788 43.2722 15.3788 43.2723 15.3787C43.2724 15.3787 43.2724 15.3787 43.2725 15.3787C43.2725 15.3787 43.2726 15.3787 43.0835 14.6701C42.8943 13.9616 42.8943 13.9616 42.8944 13.9616C42.8943 13.9616 42.8943 13.9616 42.8943 13.9616C42.8942 13.9616 42.8941 13.9617 42.894 13.9617C42.8937 13.9618 42.8932 13.9619 42.8924 13.9621C42.8909 13.9625 42.8886 13.9632 42.8855 13.964C42.8793 13.9656 42.8699 13.9681 42.8574 13.9714C42.8325 13.978 42.7951 13.9878 42.7467 14.0003C42.6497 14.0254 42.5081 14.0618 42.3309 14.1062C41.9764 14.1949 41.48 14.3156 40.914 14.443C39.7737 14.6998 38.3815 14.9771 37.2962 15.0835L37.4393 16.5431Z" fill="#DB2B75"/>
<path d="M2.12077 9.14508C2.12077 8.93466 2.29138 8.76404 2.50182 8.76404H41.7497C41.9601 8.76404 42.1308 8.93466 42.1308 9.14508C42.1308 9.35555 41.9601 9.52612 41.7497 9.52612H2.50182C2.29137 9.52612 2.12077 9.35555 2.12077 9.14508Z" fill="#F3BE05"/>
<path d="M33.5523 14.0072L26.3691 9.21838H39.262L33.5523 14.0072Z" fill="#FFDC5E"/>
</g>
<defs>
<clipPath id="clip0_16_342">
<rect width="44" height="22" fill="white"/>
</clipPath>
</defs>
</svg>
