<svg width="21" height="32" viewBox="0 0 21 32" fill="none" xmlns="http://www.w3.org/2000/svg">
<g clip-path="url(#clip0_1088_16)">
<path d="M1.9654 14.3391H18.7083L16.832 30.6543L16.832 30.6544C16.8302 30.6702 16.8166 30.683 16.7994 30.683H3.87426C3.85716 30.683 3.8435 30.6702 3.84168 30.6543L1.9654 14.3391Z" fill="#C1EFE7" stroke="#1CBABA" stroke-width="2"/>
<path d="M0.5 11.2086C0.5 10.9149 0.738292 10.6763 1.03279 10.6763H19.641C19.9355 10.6763 20.1737 10.9149 20.1737 11.2086V12.4174H0.5V11.2086Z" fill="#1CBABA" stroke="#1CBABA"/>
<path d="M1.97675 8.04581C1.97675 7.75208 2.21504 7.51355 2.50953 7.51355H17.9534C18.2478 7.51355 18.4861 7.75209 18.4861 8.04581V9.25457H1.97675V8.04581Z" fill="#1CBABA" stroke="#1CBABA"/>
<path d="M6.53961 0.688171C6.53961 0.688171 7.5944 0.856849 7.5944 2.09383C7.5944 3.33081 6.53961 3.33081 6.53961 4.3991C6.53961 5.46742 7.5944 6.59193 7.5944 6.59193" stroke="#1CBABA" stroke-linecap="round" stroke-linejoin="round"/>
<path d="M9.4931 0.688171C9.4931 0.688171 10.5479 0.856849 10.5479 2.09383C10.5479 3.33081 9.4931 3.33081 9.4931 4.3991C9.4931 5.46742 10.5479 6.59193 10.5479 6.59193" stroke="#1CBABA" stroke-linecap="round" stroke-linejoin="round"/>
<path d="M12.4464 0.688171C12.4464 0.688171 13.5012 0.856849 13.5012 2.09383C13.5012 3.33081 12.4464 3.33081 12.4464 4.3991C12.4464 5.46742 13.5012 6.59193 13.5012 6.59193" stroke="#1CBABA" stroke-linecap="round" stroke-linejoin="round"/>
</g>
<defs>
<clipPath id="clip0_1088_16">
<rect width="21" height="32" fill="white"/>
</clipPath>
</defs>
</svg>
