<svg width="100" height="14" viewBox="0 0 100 14" fill="none" xmlns="http://www.w3.org/2000/svg">
<g clip-path="url(#clip0_35_14)">
<path d="M6.92383 0.681336C7.01095 0.430766 7.3574 0.430765 7.44452 0.681336L8.91792 4.91941C8.95707 5.03206 9.06133 5.10735 9.17826 5.10735H13.8894C14.163 5.10735 14.2702 5.47058 14.0422 5.62539L10.275 8.18346C10.1693 8.25521 10.1249 8.39134 10.1674 8.51357L11.6163 12.681C11.7053 12.937 11.4244 13.1614 11.2031 13.0111L7.33701 10.386C7.24438 10.3231 7.12397 10.3231 7.03134 10.386L3.16525 13.0111C2.94397 13.1614 2.66309 12.937 2.75207 12.681L4.2009 8.51357C4.2434 8.39134 4.19908 8.25521 4.09339 8.18346L0.326139 5.62539C0.0981493 5.47058 0.205311 5.10735 0.478972 5.10735H5.19009C5.30702 5.10735 5.41128 5.03206 5.45043 4.91941L6.92383 0.681336Z" fill="#ED9D24"/>
</g>
<g clip-path="url(#clip1_35_14)">
<path d="M49.3449 0.681336C49.432 0.430766 49.7784 0.430765 49.8655 0.681336L51.3389 4.91941C51.3781 5.03206 51.4823 5.10735 51.5993 5.10735H56.3104C56.584 5.10735 56.6912 5.47058 56.4632 5.62539L52.696 8.18346C52.5903 8.25521 52.546 8.39134 52.5885 8.51357L54.0373 12.681C54.1263 12.937 53.8454 13.1614 53.6241 13.0111L49.758 10.386C49.6654 10.3231 49.545 10.3231 49.4524 10.386L45.5863 13.0111C45.365 13.1614 45.0841 12.937 45.1731 12.681L46.6219 8.51357C46.6644 8.39134 46.6201 8.25521 46.5144 8.18346L42.7472 5.62539C42.5192 5.47058 42.6263 5.10735 42.9 5.10735H47.6111C47.728 5.10735 47.8323 5.03206 47.8715 4.91941L49.3449 0.681336Z" fill="#ED9D24"/>
</g>
<g clip-path="url(#clip2_35_14)">
<path d="M28.1343 0.681336C28.2214 0.430766 28.5678 0.430765 28.655 0.681336L30.1284 4.91941C30.1675 5.03206 30.2718 5.10735 30.3887 5.10735H35.0998C35.3735 5.10735 35.4807 5.47058 35.2527 5.62539L31.4854 8.18346C31.3797 8.25521 31.3354 8.39134 31.3779 8.51357L32.8267 12.681C32.9157 12.937 32.6348 13.1614 32.4136 13.0111L28.5475 10.386C28.4548 10.3231 28.3344 10.3231 28.2418 10.386L24.3757 13.0111C24.1544 13.1614 23.8735 12.937 23.9625 12.681L25.4114 8.51357C25.4539 8.39134 25.4095 8.25521 25.3038 8.18346L21.5366 5.62539C21.3086 5.47058 21.4158 5.10735 21.6894 5.10735H26.4005C26.5175 5.10735 26.6217 5.03206 26.6609 4.91941L28.1343 0.681336Z" fill="#ED9D24"/>
</g>
<g clip-path="url(#clip3_35_14)">
<path d="M70.5554 0.681336C70.6425 0.430766 70.989 0.430765 71.0761 0.681336L72.5495 4.91941C72.5887 5.03206 72.6929 5.10735 72.8099 5.10735H77.521C77.7946 5.10735 77.9018 5.47058 77.6738 5.62539L73.9066 8.18346C73.8009 8.25521 73.7565 8.39134 73.799 8.51357L75.2479 12.681C75.3368 12.937 75.056 13.1614 74.8347 13.0111L70.9686 10.386C70.876 10.3231 70.7556 10.3231 70.6629 10.386L66.7968 13.0111C66.5756 13.1614 66.2947 12.937 66.3837 12.681L67.8325 8.51357C67.875 8.39134 67.8307 8.25521 67.725 8.18346L63.9577 5.62539C63.7297 5.47058 63.8369 5.10735 64.1106 5.10735H68.8217C68.9386 5.10735 69.0429 5.03206 69.082 4.91941L70.5554 0.681336Z" fill="#ED9D24"/>
</g>
<g clip-path="url(#clip4_35_14)">
<path d="M91.7659 0.681336C91.853 0.430766 92.1994 0.430765 92.2866 0.681336L93.76 4.91941C93.7991 5.03206 93.9034 5.10735 94.0203 5.10735H98.7314C99.0051 5.10735 99.1123 5.47058 98.8843 5.62539L95.117 8.18346C95.0113 8.25521 94.967 8.39134 95.0095 8.51357L96.4583 12.681C96.5473 12.937 96.2664 13.1614 96.0451 13.0111L92.179 10.386C92.0864 10.3231 91.966 10.3231 91.8734 10.386L88.0073 13.0111C87.786 13.1614 87.5051 12.937 87.5941 12.681L89.0429 8.51357C89.0854 8.39134 89.0411 8.25521 88.9354 8.18346L85.1682 5.62539C84.9402 5.47058 85.0474 5.10735 85.321 5.10735H90.0321C90.1491 5.10735 90.2533 5.03206 90.2925 4.91941L91.7659 0.681336Z" fill="#ED9D24"/>
</g>
<defs>
<clipPath id="clip0_35_14">
<rect width="14.3684" height="13" fill="white" transform="translate(0 0.215088)"/>
</clipPath>
<clipPath id="clip1_35_14">
<rect width="14.3684" height="13" fill="white" transform="translate(42.421 0.215088)"/>
</clipPath>
<clipPath id="clip2_35_14">
<rect width="14.3684" height="13" fill="white" transform="translate(21.2104 0.215088)"/>
</clipPath>
<clipPath id="clip3_35_14">
<rect width="14.3684" height="13" fill="white" transform="translate(63.6316 0.215088)"/>
</clipPath>
<clipPath id="clip4_35_14">
<rect width="14.3684" height="13" fill="white" transform="translate(84.842 0.215088)"/>
</clipPath>
</defs>
</svg>
